<svg xmlns="http://www.w3.org/2000/svg" xmlns:xlink="http://www.w3.org/1999/xlink" width="197" height="155.5" viewBox="0 0 197 155.5" fill="none"><g opacity="1"  transform="translate(0.5 0.5)  rotate(0)"><g opacity="1"  transform="translate(0 0)  rotate(0)"><path  id="矩形 3" style="fill:#2E2E2E; opacity:1;" d="M3.1602,119.84c-1.15303,-1.15333 -2.04572,-2.47767 -2.67807,-3.973c-0.65475,-1.54867 -0.98212,-3.171 -0.98212,-4.867l0,-99c0,-1.69585 0.32737,-3.31809 0.98212,-4.86674c0.63236,-1.49569 1.52505,-2.82004 2.67807,-3.97306c1.15302,-1.15303 2.47737,-2.04572 3.97306,-2.67807c1.54865,-0.65475 3.17089,-0.98212 4.86674,-0.98212l61,0c1.69587,0 3.3181,0.32737 4.8667,0.98212c1.49573,0.63236 2.8201,1.52505 3.9731,2.67807c1.153,1.153 2.0457,2.47735 2.6781,3.97306c0.65473,1.54863 0.9821,3.17087 0.9821,4.86674v99c0,1.696 -0.32737,3.31833 -0.9821,4.867c-0.6324,1.49533 -1.5251,2.81967 -2.6781,3.973c-1.153,1.15267 -2.47737,2.04533 -3.9731,2.678c-1.5486,0.65467 -3.17083,0.982 -4.8667,0.982h-61c-1.69587,0 -3.31811,-0.32733 -4.86674,-0.982c-1.49571,-0.63267 -2.82006,-1.52533 -3.97306,-2.678zM77.4773,121.597c1.37593,-0.582 2.5944,-1.40333 3.6554,-2.464c1.061,-1.06133 1.88237,-2.28 2.4641,-3.656c0.60213,-1.424 0.9032,-2.91633 0.9032,-4.477v-99c0,-1.56072 -0.30107,-3.05316 -0.9032,-4.47732c-0.58173,-1.3759 -1.4031,-2.59436 -2.4641,-3.65538c-1.06107,-1.06104 -2.27953,-1.88241 -3.6554,-2.46411c-1.4242,-0.60213 -2.91663,-0.90319 -4.4773,-0.90319l-61,0c-1.56071,0 -3.05315,0.30106 -4.47732,0.90319c-1.37588,0.5817 -2.59434,1.40307 -3.65538,2.46411c-1.06104,1.06104 -1.88241,2.2795 -2.46411,3.65538c-0.60213,1.42417 -0.90319,2.91661 -0.90319,4.47732l0,99c0,1.56067 0.30106,3.053 0.90319,4.477c0.5817,1.376 1.40307,2.59467 2.46411,3.656c1.06102,1.06067 2.27948,1.882 3.65538,2.464c1.42416,0.602 2.9166,0.903 4.47732,0.903h61c1.56073,0 3.05317,-0.301 4.4773,-0.903z"></path><path  id="圆形 1" style="fill:#2E2E2E; opacity:1;" d="M58.3486,24.6514c1.9376,1.93767 3.4378,4.16267 4.5006,6.675c1.10053,2.60147 1.6508,5.326 1.6508,8.1736c0,2.8476 -0.55027,5.57213 -1.6508,8.1736c-1.0628,2.51233 -2.563,4.73733 -4.5006,6.675c-1.93767,1.9376 -4.16267,3.4378 -6.675,4.5006c-2.60147,1.10053 -5.326,1.6508 -8.1736,1.6508c-2.8476,0 -5.57213,-0.55027 -8.1736,-1.6508c-2.51233,-1.0628 -4.73733,-2.563 -6.675,-4.5006c-1.9376,-1.93767 -3.4378,-4.16267 -4.5006,-6.675c-1.10053,-2.60147 -1.6508,-5.326 -1.6508,-8.1736c0,-2.8476 0.55027,-5.57213 1.6508,-8.1736c1.0628,-2.51233 2.563,-4.73733 4.5006,-6.675c1.93767,-1.9376 4.16267,-3.4378 6.675,-4.5006c2.60147,-1.10053 5.326,-1.6508 8.1736,-1.6508c2.8476,0 5.57213,0.55027 8.1736,1.6508c2.51233,1.0628 4.73733,2.563 6.675,4.5006zM29.3586,25.3586c-1.84573,1.84567 -3.2747,3.96483 -4.2869,6.3575c-1.0478,2.47687 -1.5717,5.0715 -1.5717,7.7839c0,2.7124 0.5239,5.30703 1.5717,7.7839c1.0122,2.39267 2.44117,4.51183 4.2869,6.3575c1.84567,1.84573 3.96483,3.2747 6.3575,4.2869c2.47687,1.0478 5.0715,1.5717 7.7839,1.5717c2.7124,0 5.30703,-0.5239 7.7839,-1.5717c2.39267,-1.0122 4.51183,-2.44117 6.3575,-4.2869c1.84573,-1.84567 3.2747,-3.96483 4.2869,-6.3575c1.0478,-2.47687 1.5717,-5.0715 1.5717,-7.7839c0,-2.7124 -0.5239,-5.30703 -1.5717,-7.7839c-1.0122,-2.39267 -2.44117,-4.51183 -4.2869,-6.3575c-1.84567,-1.84573 -3.96483,-3.2747 -6.3575,-4.2869c-2.47687,-1.0478 -5.0715,-1.5717 -7.7839,-1.5717c-2.7124,0 -5.30703,0.5239 -7.7839,1.5717c-2.39267,1.0122 -4.51183,2.44117 -6.3575,4.2869z"></path><g opacity="1"  transform="translate(32 28)  rotate(0)"><mask id="bg-mask-0" fill="white"><use xlink:href="#path_0"></use></mask><g mask="url(#bg-mask-0)" ><path  id="路径 1" style="fill:#383838; opacity:1;" d="M18.7007,5.189c-2.47953,1.15806 -5.0656,1.88036 -7.7582,2.16689c-0.295,1.29225 -0.4425,2.59028 -0.4425,3.89411c0,1.3106 0.14727,2.6086 0.4418,3.894c2.69247,0.28633 5.27863,1.00727 7.7585,2.1628c0.38807,-1.42507 0.63523,-2.88453 0.7415,-4.3784v-0.0004l0.0001,-0.0011v-0.0009c0.07767,-1.1174 0.07767,-2.23477 0,-3.35212v-0.00074l-0.0001,-0.00109v-0.00038c-0.10593,-1.48994 -0.35297,-2.95083 -0.7411,-4.38267zM20.9155,13.3271c-0.1492,1.79973 -0.4917,3.553 -1.0275,5.2598c-0.08807,0.3034 -0.21487,0.69063 -0.3804,1.1617c-0.01633,0.04647 -0.03703,0.0909 -0.0621,0.1333c-0.02507,0.0424 -0.05403,0.08193 -0.0869,0.1186c-0.03287,0.03667 -0.069,0.06977 -0.1084,0.0993c-0.0394,0.0296 -0.0813,0.05503 -0.1257,0.0763c-0.04433,0.02133 -0.09037,0.03813 -0.1381,0.0504c-0.04773,0.0122 -0.09617,0.01967 -0.1453,0.0224c-0.0492,0.00267 -0.09817,0.00053 -0.1469,-0.0064c-0.04873,-0.00693 -0.09633,-0.01857 -0.1428,-0.0349c-0.09387,-0.033 -0.17783,-0.08267 -0.2519,-0.149c-0.07407,-0.0664 -0.1326,-0.1444 -0.1756,-0.234c-0.04307,-0.08967 -0.06733,-0.18417 -0.0728,-0.2835c-0.0054,-0.09933 0.00837,-0.1959 0.0413,-0.2897c0.06247,-0.1778 0.11887,-0.34217 0.1692,-0.4931c-2.20553,-1.0516 -4.50003,-1.73547 -6.8835,-2.0516c0.18047,0.5436 0.38913,1.07887 0.626,1.6058c0.20273,0.446 0.23533,0.90213 0.0978,1.3684c-0.14353,0.48653 -0.43437,0.8538 -0.8725,1.1018l-0.6552,0.3773c-0.22333,0.12993 -0.46354,0.20983 -0.72063,0.2397c-0.25004,0.029 -0.4951,0.008 -0.73517,-0.063c-0.24476,-0.07247 -0.4632,-0.19067 -0.65533,-0.3546c-0.20201,-0.17233 -0.35782,-0.38077 -0.46745,-0.6253c-0.58781,-1.25813 -1.04603,-2.56803 -1.37465,-3.9297c-0.39775,-0.0672 -0.78544,-0.18087 -1.16307,-0.341c-0.62772,-0.26607 -1.1838,-0.64133 -1.66823,-1.1258c-0.48443,-0.4844 -0.8597,-1.04047 -1.12581,-1.6682c-0.27591,-0.65087 -0.41386,-1.33157 -0.41386,-2.0421c0,-0.71053 0.13795,-1.39123 0.41386,-2.0421c0.26611,-0.62772 0.64138,-1.1838 1.12581,-1.66823c0.48443,-0.48443 1.04051,-0.8597 1.66823,-1.12581c0.65083,-0.27591 1.33153,-0.41386 2.0421,-0.41386h0.75c0.68163,0 1.35663,-0.02906 2.025,-0.08718l0.0004,-0.00003l0.0015,-0.00013l0.0003,-0.00003h0.0001c2.77973,-0.23469 5.4409,-0.95962 7.9835,-2.17478c-0.0504,-0.15002 -0.10653,-0.3131 -0.1684,-0.48924c-0.03293,-0.09383 -0.0467,-0.1904 -0.0413,-0.28971c0.00547,-0.0993 0.02973,-0.19378 0.0728,-0.28345c0.043,-0.08966 0.10153,-0.16767 0.1756,-0.23404c0.07407,-0.06637 0.15803,-0.11604 0.2519,-0.14901c0.04647,-0.01632 0.09407,-0.02795 0.1428,-0.0349c0.04873,-0.00695 0.0977,-0.00907 0.1469,-0.00637c0.0492,0.00269 0.09763,0.01016 0.1453,0.0224c0.04773,0.01224 0.09377,0.02902 0.1381,0.05033c0.0444,0.02131 0.0863,0.04674 0.1257,0.07631c0.0394,0.02956 0.07553,0.06268 0.1084,0.09936c0.03287,0.03667 0.06183,0.0762 0.0869,0.11859c0.02507,0.04238 0.04577,0.0868 0.0621,0.13327c0.14433,0.41072 0.25987,0.75739 0.3466,1.04001c0.03453,0.0709 0.05733,0.1454 0.0684,0.22351c0.51613,1.68127 0.8471,3.40047 0.9929,5.15758c0.2198,0.22877 0.39953,0.48835 0.5392,0.77874c0.19687,0.40945 0.2953,0.84237 0.2953,1.29877c0,0.45213 -0.09827,0.88343 -0.2948,1.2939c-0.14033,0.29307 -0.32023,0.55413 -0.5397,0.7832zM9.38237,7.4746c-0.37562,0.01693 -0.75308,0.0254 -1.13237,0.0254h-0.75c-0.50735,0 -0.9929,0.0983 -1.45665,0.29489c-0.44853,0.19015 -0.84621,0.45863 -1.19302,0.80544c-0.34681,0.34681 -0.61529,0.74449 -0.80544,1.19302c-0.19659,0.46377 -0.29489,0.94932 -0.29489,1.45665c0,0.50733 0.0983,0.99287 0.29489,1.4566c0.19015,0.44853 0.45863,0.84623 0.80544,1.1931c0.34681,0.3468 0.74449,0.61527 1.19302,0.8054c0.46375,0.1966 0.9493,0.2949 1.45665,0.2949h0.75c0.37899,0 0.75614,0.00847 1.13147,0.0254c-0.25431,-1.2472 -0.38147,-2.50567 -0.38147,-3.7754c0,-1.26435 0.12746,-2.52281 0.38237,-3.7754zM9.75759,16.5481c-0.49887,-0.03207 -1.0014,-0.0481 -1.50759,-0.0481h-0.06317c0.29586,1.11487 0.68838,2.19593 1.17755,3.2432c0.03513,0.07833 0.09503,0.13003 0.17972,0.1551c0.09537,0.02827 0.18926,0.0155 0.28168,-0.0383l0.66482,-0.3827c0.086,-0.04867 0.1435,-0.12223 0.1725,-0.2207c0.03213,-0.10887 0.02307,-0.21857 -0.0272,-0.3291c-0.34887,-0.77627 -0.64164,-1.5694 -0.87831,-2.3794z"></path></g></g></g><g opacity="1"  transform="translate(111 0)  rotate(0)"><path  id="矩形 3" style="fill:#2E2E2E; opacity:1;" d="M3.1602,119.84c-1.15303,-1.15333 -2.04572,-2.47767 -2.67807,-3.973c-0.65475,-1.54867 -0.98212,-3.171 -0.98212,-4.867l0,-99c0,-1.69585 0.32737,-3.31809 0.98212,-4.86674c0.63236,-1.49569 1.52505,-2.82004 2.67807,-3.97306c1.15302,-1.15303 2.47737,-2.04572 3.97306,-2.67807c1.54865,-0.65475 3.17089,-0.98212 4.86674,-0.98212l61,0c1.69587,0 3.3181,0.32737 4.8667,0.98212c1.49573,0.63236 2.8201,1.52505 3.9731,2.67807c1.153,1.153 2.0457,2.47735 2.6781,3.97306c0.65473,1.54863 0.9821,3.17087 0.9821,4.86674v99c0,1.696 -0.32737,3.31833 -0.9821,4.867c-0.6324,1.49533 -1.5251,2.81967 -2.6781,3.973c-1.153,1.15267 -2.47737,2.04533 -3.9731,2.678c-1.5486,0.65467 -3.17083,0.982 -4.8667,0.982h-61c-1.69587,0 -3.31811,-0.32733 -4.86674,-0.982c-1.49571,-0.63267 -2.82006,-1.52533 -3.97306,-2.678zM77.4773,121.597c1.37593,-0.582 2.5944,-1.40333 3.6554,-2.464c1.061,-1.06133 1.88237,-2.28 2.4641,-3.656c0.60213,-1.424 0.9032,-2.91633 0.9032,-4.477v-99c0,-1.56072 -0.30107,-3.05316 -0.9032,-4.47732c-0.58173,-1.3759 -1.4031,-2.59436 -2.4641,-3.65538c-1.06107,-1.06104 -2.27953,-1.88241 -3.6554,-2.46411c-1.4242,-0.60213 -2.91663,-0.90319 -4.4773,-0.90319l-61,0c-1.56071,0 -3.05315,0.30106 -4.47732,0.90319c-1.37588,0.5817 -2.59434,1.40307 -3.65538,2.46411c-1.06104,1.06104 -1.88241,2.2795 -2.46411,3.65538c-0.60213,1.42417 -0.90319,2.91661 -0.90319,4.47732l0,99c0,1.56067 0.30106,3.053 0.90319,4.477c0.5817,1.376 1.40307,2.59467 2.46411,3.656c1.06102,1.06067 2.27948,1.882 3.65538,2.464c1.42416,0.602 2.9166,0.903 4.47732,0.903h61c1.56073,0 3.05317,-0.301 4.4773,-0.903z"></path><path  id="圆形 1" style="fill:#2E2E2E; opacity:1;" d="M57.3486,24.6514c1.9376,1.93767 3.4378,4.16267 4.5006,6.675c1.10053,2.60147 1.6508,5.326 1.6508,8.1736c0,2.8476 -0.55027,5.57213 -1.6508,8.1736c-1.0628,2.51233 -2.563,4.73733 -4.5006,6.675c-1.93767,1.9376 -4.16267,3.4378 -6.675,4.5006c-2.60147,1.10053 -5.326,1.6508 -8.1736,1.6508c-2.8476,0 -5.57213,-0.55027 -8.1736,-1.6508c-2.51233,-1.0628 -4.73733,-2.563 -6.675,-4.5006c-1.9376,-1.93767 -3.4378,-4.16267 -4.5006,-6.675c-1.10053,-2.60147 -1.6508,-5.326 -1.6508,-8.1736c0,-2.8476 0.55027,-5.57213 1.6508,-8.1736c1.0628,-2.51233 2.563,-4.73733 4.5006,-6.675c1.93767,-1.9376 4.16267,-3.4378 6.675,-4.5006c2.60147,-1.10053 5.326,-1.6508 8.1736,-1.6508c2.8476,0 5.57213,0.55027 8.1736,1.6508c2.51233,1.0628 4.73733,2.563 6.675,4.5006zM28.3586,25.3586c-1.84573,1.84567 -3.2747,3.96483 -4.2869,6.3575c-1.0478,2.47687 -1.5717,5.0715 -1.5717,7.7839c0,2.7124 0.5239,5.30703 1.5717,7.7839c1.0122,2.39267 2.44117,4.51183 4.2869,6.3575c1.84567,1.84573 3.96483,3.2747 6.3575,4.2869c2.47687,1.0478 5.0715,1.5717 7.7839,1.5717c2.7124,0 5.30703,-0.5239 7.7839,-1.5717c2.39267,-1.0122 4.51183,-2.44117 6.3575,-4.2869c1.84573,-1.84567 3.2747,-3.96483 4.2869,-6.3575c1.0478,-2.47687 1.5717,-5.0715 1.5717,-7.7839c0,-2.7124 -0.5239,-5.30703 -1.5717,-7.7839c-1.0122,-2.39267 -2.44117,-4.51183 -4.2869,-6.3575c-1.84567,-1.84573 -3.96483,-3.2747 -6.3575,-4.2869c-2.47687,-1.0478 -5.0715,-1.5717 -7.7839,-1.5717c-2.7124,0 -5.30703,0.5239 -7.7839,1.5717c-2.39267,1.0122 -4.51183,2.44117 -6.3575,4.2869z"></path><g opacity="1"  transform="translate(33 30)  rotate(0)"><mask id="bg-mask-1" fill="white"><use xlink:href="#path_1"></use></mask><g mask="url(#bg-mask-1)" ><path  id="路径 1" style="fill:#383838; opacity:1;" d="M14.8723,1.75999c0.90133,0.45128 1.6177,1.10612 2.1491,1.96451c0.53327,0.86136 0.7999,1.7983 0.7999,2.81081c0,0.78967 -0.1672,1.54191 -0.5016,2.25671c-0.335,0.71623 -0.80573,1.32705 -1.4122,1.83248c-0.60347,0.50753 -1.28593,0.86493 -2.0474,1.0722c-0.76467,0.2082 -1.53673,0.2445 -2.3162,0.1089c-0.1416,-0.02573 -0.2757,-0.0222 -0.4023,0.0106c-0.11933,0.03087 -0.21837,0.08567 -0.2971,0.1644l-2.10999,2.1c-0.05622,0.05593 -0.12099,0.09903 -0.19431,0.1293c-0.07331,0.03027 -0.14963,0.0454 -0.22895,0.0454h-1.18v1.18c0,0.0394 -0.00384,0.07843 -0.01153,0.1171c-0.00769,0.0386 -0.01907,0.0761 -0.03414,0.1125c-0.01508,0.0364 -0.03356,0.071 -0.05545,0.1038c-0.02189,0.03273 -0.04676,0.06303 -0.07462,0.0909c-0.02785,0.02787 -0.05816,0.05273 -0.09092,0.0746c-0.03275,0.02187 -0.06733,0.04033 -0.10373,0.0554c-0.0364,0.01513 -0.07392,0.02653 -0.11256,0.0342c-0.03864,0.00767 -0.07766,0.0115 -0.11705,0.0115h-1.18v1.18c0,0.0394 -0.00384,0.07843 -0.01153,0.1171c-0.00769,0.0386 -0.01907,0.0761 -0.03414,0.1125c-0.01508,0.0364 -0.03356,0.071 -0.05545,0.1038c-0.02189,0.03273 -0.04676,0.06303 -0.07462,0.0909c-0.02785,0.02787 -0.05816,0.05273 -0.09092,0.0746c-0.03275,0.02187 -0.06733,0.04033 -0.10373,0.0554c-0.0364,0.01513 -0.07392,0.02653 -0.11256,0.0342c-0.03863,0.00767 -0.07765,0.0115 -0.11705,0.0115h-2.97c-0.0394,0 -0.07842,-0.00383 -0.11705,-0.0115c-0.03864,-0.00767 -0.07616,-0.01907 -0.11256,-0.0342c-0.0364,-0.01507 -0.07098,-0.03353 -0.10373,-0.0554c-0.03276,-0.02187 -0.06307,-0.04673 -0.09092,-0.0746c-0.02786,-0.02787 -0.05273,-0.05817 -0.07462,-0.0909c-0.02189,-0.0328 -0.04037,-0.0674 -0.05545,-0.1038c-0.01507,-0.0364 -0.02645,-0.0739 -0.03414,-0.1125c-0.00769,-0.03867 -0.01153,-0.0777 -0.01153,-0.1171v-2.23c0,-0.31347 0.06071,-0.6164 0.18212,-0.9088c0.11917,-0.287 0.29051,-0.54563 0.51403,-0.7759l5.14959,-5.13955c0.16381,-0.16381 0.22156,-0.40122 0.17326,-0.71223c-0.17445,-0.99605 -0.07355,-1.96405 0.30272,-2.904c0.37537,-0.93769 0.96957,-1.7086 1.78259,-2.31271c0.81209,-0.59779 1.72024,-0.93974 2.72444,-1.02586c1.0072,-0.08637 1.9604,0.09776 2.8596,0.5524l0.0014,0.00073zM14.3302,2.83062c-0.69693,-0.35285 -1.43617,-0.49577 -2.2177,-0.42876c-0.77973,0.06687 -1.48492,0.33242 -2.11556,0.79665c-0.62861,0.4671 -1.08858,1.06453 -1.37991,1.79228c-0.29172,0.72873 -0.36998,1.47906 -0.23477,2.25101c0.05052,0.32433 0.03956,0.63052 -0.03287,0.91858c-0.08406,0.33427 -0.24202,0.61734 -0.47387,0.84919l-5.15042,5.14043c-0.22923,0.23627 -0.34385,0.5147 -0.34385,0.8353v1.63h1.77v-1.18c0,-0.0394 0.00384,-0.0784 0.01153,-0.117c0.00769,-0.03867 0.01907,-0.0762 0.03414,-0.1126c0.01508,-0.0364 0.03356,-0.07097 0.05545,-0.1037c0.02189,-0.0328 0.04676,-0.06313 0.07462,-0.091c0.02785,-0.0278 0.05816,-0.05267 0.09092,-0.0746c0.03275,-0.02187 0.06733,-0.04033 0.10373,-0.0554c0.0364,-0.01507 0.07392,-0.02647 0.11256,-0.0342c0.03863,-0.00767 0.07765,-0.0115 0.11705,-0.0115h1.18v-1.18c0,-0.0394 0.00384,-0.0784 0.01153,-0.117c0.00769,-0.03867 0.01907,-0.0762 0.03414,-0.1126c0.01508,-0.0364 0.03356,-0.07097 0.05545,-0.1037c0.02189,-0.0328 0.04676,-0.06313 0.07462,-0.091c0.02785,-0.0278 0.05816,-0.05267 0.09092,-0.0746c0.03275,-0.02187 0.06733,-0.04033 0.10373,-0.0554c0.0364,-0.01507 0.07392,-0.02647 0.11256,-0.0342c0.03864,-0.00767 0.07766,-0.0115 0.11705,-0.0115h1.53231l1.93444,-1.9253c0.23153,-0.23153 0.5125,-0.39003 0.8429,-0.4755c0.297,-0.07693 0.6029,-0.08677 0.9177,-0.0295c0.598,0.104 1.19343,0.0753 1.7863,-0.0861c0.59147,-0.161 1.1215,-0.43859 1.5901,-0.83276c0.4724,-0.39363 0.83833,-0.86781 1.0978,-1.42254c0.259,-0.5537 0.3885,-1.13646 0.3885,-1.74829c0,-0.78493 -0.20673,-1.51132 -0.6202,-2.17919c-0.41247,-0.66627 -0.96853,-1.17432 -1.6682,-1.52415zM14.573,4.43103c0.27333,0.27493 0.48503,0.59055 0.6351,0.94685c0.15547,0.36901 0.2332,0.75482 0.2332,1.15743c0,0.03939 -0.00387,0.07841 -0.0116,0.11705c-0.00767,0.03864 -0.01903,0.07616 -0.0341,0.11256c-0.01507,0.0364 -0.03357,0.07098 -0.0555,0.10373c-0.02187,0.03276 -0.04673,0.06307 -0.0746,0.09092c-0.02787,0.02786 -0.05817,0.05273 -0.0909,0.07462c-0.03273,0.02189 -0.0673,0.04037 -0.1037,0.05545c-0.0364,0.01507 -0.07393,0.02645 -0.1126,0.03414c-0.03867,0.00769 -0.07767,0.01153 -0.117,0.01153c-0.0394,0 -0.07843,-0.00384 -0.1171,-0.01153c-0.03867,-0.00769 -0.0762,-0.01907 -0.1126,-0.03414c-0.0364,-0.01508 -0.07097,-0.03356 -0.1037,-0.05545c-0.03273,-0.02189 -0.06303,-0.04676 -0.0909,-0.07462c-0.02787,-0.02785 -0.05273,-0.05816 -0.0746,-0.09092c-0.02193,-0.03275 -0.04043,-0.06733 -0.0555,-0.10373c-0.01507,-0.0364 -0.02643,-0.07392 -0.0341,-0.11256c-0.00767,-0.03864 -0.0115,-0.07766 -0.0115,-0.11705c0,-0.24101 -0.04637,-0.47155 -0.1391,-0.69163c-0.08973,-0.21304 -0.21647,-0.4019 -0.3802,-0.56659c-0.16367,-0.16462 -0.3513,-0.29199 -0.5629,-0.3821c-0.2186,-0.09312 -0.44787,-0.13968 -0.6878,-0.13968c-0.0394,0 -0.07843,-0.00384 -0.1171,-0.01153c-0.03867,-0.00769 -0.0762,-0.01907 -0.1126,-0.03414c-0.0364,-0.01508 -0.07097,-0.03356 -0.1037,-0.05545c-0.03273,-0.02189 -0.06303,-0.04676 -0.0909,-0.07462c-0.02787,-0.02785 -0.05273,-0.05816 -0.0746,-0.09092c-0.02193,-0.03275 -0.04043,-0.06733 -0.0555,-0.10373c-0.01507,-0.0364 -0.02643,-0.07392 -0.0341,-0.11256c-0.00773,-0.03864 -0.01157,-0.07766 -0.0115,-0.11705c-0.00007,-0.0394 0.00377,-0.07842 0.0115,-0.11706c0.00767,-0.03864 0.01903,-0.07616 0.0341,-0.11255c0.01507,-0.0364 0.03357,-0.07098 0.0555,-0.10373c0.02187,-0.03276 0.04673,-0.06307 0.0746,-0.09093c0.02787,-0.02785 0.05817,-0.05272 0.0909,-0.07461c0.03273,-0.02189 0.0673,-0.04037 0.1037,-0.05545c0.0364,-0.01507 0.07393,-0.02645 0.1126,-0.03414c0.03867,-0.00769 0.0777,-0.01153 0.1171,-0.01153c0.4032,0 0.7892,0.07854 1.158,0.23563c0.35533,0.15133 0.6699,0.3647 0.9437,0.64009z"></path></g></g></g><path id="矩形 5" fill-rule="evenodd" style="fill:#CCCCCC" opacity="0.1" d="M7 155L191 155C192.1 155 193 154.1 193 153L193 153C193 151.9 192.1 151 191 151L7 151C5.9 151 5 151.9 5 153L5 153C5 154.1 5.9 155 7 155Z"></path></g><defs><rect id="path_0" x="0" y="0" width="24" height="24" /><rect id="path_1" x="0" y="0" width="19" height="19" /></defs></svg>