<svg xmlns="http://www.w3.org/2000/svg" xmlns:xlink="http://www.w3.org/1999/xlink" width="500" height="391" viewBox="0 0 500 391" fill="none"><g opacity="1"  transform="translate(0 0)  rotate(0)"><rect fill="#181818" opacity="1" transform="translate(0 0)  rotate(0)" x="0" y="0" width="500" height="391" rx="0" /><mask id="bg-mask-0" fill="white"><use xlink:href="#path_0"></use></mask><g mask="url(#bg-mask-0)" ><path id="矩形 1" fill-rule="evenodd" style="fill:#262626" opacity="1" d="M0 55L500 55L500 54L0 54L0 55Z"></path><path id="矩形 2" fill-rule="evenodd" style="fill:#111111" opacity="1" d="M43 306L219 306C227.28 306 234 299.28 234 291L234 100C234 91.72 227.28 85 219 85L43 85C34.72 85 28 91.72 28 100L28 291C28 299.28 34.72 306 43 306Z"></path><path id="矩形 2" fill-rule="evenodd" style="fill:#111111" opacity="1" d="M265 216L460 216C468.28 216 475 209.28 475 201L475 100C475 91.72 468.28 85 460 85L265 85C256.72 85 250 91.72 250 100L250 201C250 209.28 256.72 216 265 216Z"></path><g opacity="1"  transform="translate(273 185)  rotate(0)"><mask id="bg-mask-1" fill="white"><use xlink:href="#path_1"></use></mask><g mask="url(#bg-mask-1)" ><path  id="路径 1" style="fill:#383838; opacity:1;" d="M6.30839,0.6496c0.39457,0.20023 0.70815,0.48885 0.94073,0.86584c0.23392,0.37916 0.35088,0.79125 0.35088,1.23627c0,0.34647 -0.07293,0.67684 -0.21878,0.99109c-0.14585,0.31425 -0.35098,0.58303 -0.61541,0.80632c-0.2643,0.22319 -0.56467,0.38004 -0.90112,0.47057c-0.33492,0.09011 -0.67135,0.10603 -1.00928,0.04774c-0.10142,-0.01601 -0.17406,-0.00209 -0.21792,0.04177l-0.89,0.89c-0.03282,0.03281 -0.07067,0.0581 -0.11355,0.07587c-0.04288,0.01776 -0.08753,0.02664 -0.13394,0.02664h-0.4v0.4c0,0.02298 -0.00224,0.04574 -0.00673,0.06828c-0.00448,0.02254 -0.01112,0.04443 -0.01991,0.06566c-0.00879,0.02123 -0.01958,0.0414 -0.03235,0.06051c-0.01277,0.01911 -0.02727,0.03679 -0.04352,0.05304c-0.01625,0.01625 -0.03393,0.03075 -0.05304,0.04352c-0.01911,0.01277 -0.03928,0.02355 -0.06051,0.03235c-0.02123,0.00879 -0.04312,0.01543 -0.06566,0.01991c-0.02254,0.00449 -0.0453,0.00673 -0.06828,0.00673h-0.4v0.4c0,0.02298 -0.00224,0.04574 -0.00673,0.06828c-0.00448,0.02254 -0.01112,0.04443 -0.01991,0.06566c-0.00879,0.02123 -0.01958,0.0414 -0.03235,0.06051c-0.01277,0.01911 -0.02727,0.03679 -0.04352,0.05304c-0.01625,0.01625 -0.03393,0.03075 -0.05304,0.04352c-0.01911,0.01277 -0.03928,0.02355 -0.06051,0.03235c-0.02123,0.00879 -0.04312,0.01543 -0.06566,0.01991c-0.02254,0.00449 -0.0453,0.00673 -0.06828,0.00673h-1.25c-0.02298,0 -0.04574,-0.00224 -0.06828,-0.00673c-0.02254,-0.00448 -0.04443,-0.01112 -0.06566,-0.01991c-0.02123,-0.0088 -0.0414,-0.01958 -0.06051,-0.03235c-0.01911,-0.01277 -0.03679,-0.02727 -0.05304,-0.04352c-0.01625,-0.01625 -0.03076,-0.03393 -0.04353,-0.05304c-0.01277,-0.01911 -0.02355,-0.03928 -0.03234,-0.06051c-0.00879,-0.02123 -0.01543,-0.04312 -0.01992,-0.06566c-0.00448,-0.02254 -0.00672,-0.0453 -0.00672,-0.06828v-0.94c0,-0.30332 0.1075,-0.56248 0.32251,-0.77749l2.17,-2.17c0.04386,-0.04386 0.05812,-0.11451 0.04277,-0.21195c-0.07661,-0.43607 -0.03258,-0.86069 0.13209,-1.27388c0.16533,-0.41486 0.42694,-0.7543 0.78485,-1.01833c0.35811,-0.26418 0.7569,-0.41528 1.19637,-0.45329c0.43997,-0.03806 0.85928,0.04257 1.25793,0.2419zM5.99257,1.27431c-0.28063,-0.14012 -0.57518,-0.19684 -0.88366,-0.17015c-0.30846,0.02668 -0.58884,0.13308 -0.84113,0.3192c-0.25074,0.18497 -0.43412,0.42303 -0.55015,0.71417c-0.11563,0.29014 -0.1466,0.58801 -0.09291,0.89362c0.02372,0.14998 0.01866,0.29263 -0.01517,0.42795c-0.03957,0.15825 -0.11359,0.29162 -0.22206,0.4001l-2.17,2.17c-0.07833,0.07832 -0.11749,0.17249 -0.11749,0.28251v0.59h0.55v-0.4c0,-0.02298 0.00224,-0.04574 0.00673,-0.06828c0.00448,-0.02254 0.01112,-0.04443 0.01991,-0.06566c0.00879,-0.02123 0.01958,-0.0414 0.03235,-0.06051c0.01277,-0.01911 0.02727,-0.03679 0.04352,-0.05304c0.01625,-0.01625 0.03393,-0.03076 0.05304,-0.04353c0.01911,-0.01277 0.03928,-0.02355 0.06051,-0.03234c0.02123,-0.00879 0.04312,-0.01543 0.06566,-0.01992c0.02254,-0.00448 0.0453,-0.00672 0.06828,-0.00672h0.4v-0.4c0,-0.02298 0.00224,-0.04574 0.00673,-0.06828c0.00448,-0.02254 0.01112,-0.04443 0.01991,-0.06566c0.00879,-0.02123 0.01958,-0.0414 0.03235,-0.06051c0.01277,-0.01911 0.02727,-0.03679 0.04352,-0.05304c0.01625,-0.01625 0.03393,-0.03076 0.05304,-0.04353c0.01911,-0.01277 0.03928,-0.02355 0.06051,-0.03234c0.02123,-0.00879 0.04312,-0.01543 0.06566,-0.01992c0.02254,-0.00448 0.0453,-0.00672 0.06828,-0.00672h0.60503l0.78748,-0.78749c0.10848,-0.10848 0.24185,-0.1825 0.4001,-0.22206c0.13532,-0.03383 0.27598,-0.03922 0.42198,-0.01617c0.24315,0.0419 0.48255,0.03115 0.71822,-0.03226c0.23605,-0.06351 0.44651,-0.17332 0.63138,-0.32943c0.18563,-0.15675 0.32966,-0.34548 0.43209,-0.56619c0.10248,-0.22081 0.15372,-0.45294 0.15372,-0.6964c0,-0.31265 -0.08221,-0.60223 -0.24662,-0.86873c-0.16329,-0.26469 -0.38326,-0.46742 -0.65991,-0.60821zM6.6,2.75171c0,0.02298 -0.00224,0.04574 -0.00673,0.06828c-0.00448,0.02254 -0.01112,0.04443 -0.01991,0.06566c-0.00879,0.02123 -0.01958,0.0414 -0.03235,0.06051c-0.01277,0.01911 -0.02727,0.03679 -0.04352,0.05304c-0.01625,0.01625 -0.03393,0.03075 -0.05304,0.04352c-0.01911,0.01277 -0.03928,0.02355 -0.06051,0.03235c-0.02123,0.00879 -0.04312,0.01543 -0.06566,0.01991c-0.02254,0.00449 -0.0453,0.00673 -0.06828,0.00673c-0.02298,0 -0.04574,-0.00224 -0.06828,-0.00673c-0.02254,-0.00448 -0.04443,-0.01112 -0.06566,-0.01991c-0.02123,-0.0088 -0.0414,-0.01958 -0.06051,-0.03235c-0.01911,-0.01277 -0.03679,-0.02727 -0.05304,-0.04352c-0.01625,-0.01625 -0.03076,-0.03393 -0.04353,-0.05304c-0.01277,-0.01911 -0.02355,-0.03928 -0.03234,-0.06051c-0.00879,-0.02123 -0.01543,-0.04312 -0.01992,-0.06566c-0.00448,-0.02254 -0.00672,-0.0453 -0.00672,-0.06828c0,-0.17835 -0.06375,-0.33127 -0.19124,-0.45876c-0.12749,-0.12749 -0.28041,-0.19124 -0.45876,-0.19124c-0.02298,0 -0.04574,-0.00224 -0.06828,-0.00673c-0.02254,-0.00448 -0.04443,-0.01112 -0.06566,-0.01991c-0.02123,-0.0088 -0.0414,-0.01958 -0.06051,-0.03235c-0.01911,-0.01277 -0.03679,-0.02727 -0.05304,-0.04352c-0.01625,-0.01625 -0.03075,-0.03393 -0.04352,-0.05304c-0.01277,-0.01911 -0.02356,-0.03928 -0.03235,-0.06051c-0.00879,-0.02123 -0.01543,-0.04312 -0.01992,-0.06566c-0.00448,-0.02254 -0.00672,-0.0453 -0.00672,-0.06828c0,-0.02298 0.00224,-0.04574 0.00672,-0.06828c0.00449,-0.02254 0.01113,-0.04443 0.01992,-0.06566c0.00879,-0.02123 0.01958,-0.0414 0.03235,-0.06051c0.01277,-0.01911 0.02727,-0.03679 0.04352,-0.05304c0.01625,-0.01625 0.03393,-0.03076 0.05304,-0.04353c0.01911,-0.01277 0.03928,-0.02355 0.06051,-0.03234c0.02123,-0.00879 0.04312,-0.01543 0.06566,-0.01992c0.02254,-0.00448 0.0453,-0.00672 0.06828,-0.00672c0.37165,0 0.68956,0.13209 0.95374,0.39626c0.26417,0.26417 0.39626,0.58209 0.39626,0.95374z"></path></g></g><g opacity="1"  transform="translate(273 283)  rotate(0)"><mask id="bg-mask-2" fill="white"><use xlink:href="#path_2"></use></mask><g mask="url(#bg-mask-2)" ><path  id="路径 1" style="fill:#383838; opacity:1;" d="M6.30839,0.6496c0.39457,0.20023 0.70815,0.48885 0.94073,0.86584c0.23392,0.37916 0.35088,0.79125 0.35088,1.23627c0,0.34647 -0.07293,0.67684 -0.21878,0.99109c-0.14585,0.31425 -0.35098,0.58303 -0.61541,0.80632c-0.2643,0.22319 -0.56467,0.38004 -0.90112,0.47057c-0.33492,0.09011 -0.67135,0.10603 -1.00928,0.04774c-0.10142,-0.01601 -0.17406,-0.00209 -0.21792,0.04177l-0.89,0.89c-0.03282,0.03281 -0.07067,0.0581 -0.11355,0.07587c-0.04288,0.01776 -0.08753,0.02664 -0.13394,0.02664h-0.4v0.4c0,0.02298 -0.00224,0.04574 -0.00673,0.06828c-0.00448,0.02254 -0.01112,0.04443 -0.01991,0.06566c-0.00879,0.02123 -0.01958,0.0414 -0.03235,0.06051c-0.01277,0.01911 -0.02727,0.03679 -0.04352,0.05304c-0.01625,0.01625 -0.03393,0.03075 -0.05304,0.04352c-0.01911,0.01277 -0.03928,0.02355 -0.06051,0.03235c-0.02123,0.00879 -0.04312,0.01543 -0.06566,0.01991c-0.02254,0.00449 -0.0453,0.00673 -0.06828,0.00673h-0.4v0.4c0,0.02298 -0.00224,0.04574 -0.00673,0.06828c-0.00448,0.02254 -0.01112,0.04443 -0.01991,0.06566c-0.00879,0.02123 -0.01958,0.0414 -0.03235,0.06051c-0.01277,0.01911 -0.02727,0.03679 -0.04352,0.05304c-0.01625,0.01625 -0.03393,0.03075 -0.05304,0.04352c-0.01911,0.01277 -0.03928,0.02355 -0.06051,0.03235c-0.02123,0.00879 -0.04312,0.01543 -0.06566,0.01991c-0.02254,0.00449 -0.0453,0.00673 -0.06828,0.00673h-1.25c-0.02298,0 -0.04574,-0.00224 -0.06828,-0.00673c-0.02254,-0.00448 -0.04443,-0.01112 -0.06566,-0.01991c-0.02123,-0.0088 -0.0414,-0.01958 -0.06051,-0.03235c-0.01911,-0.01277 -0.03679,-0.02727 -0.05304,-0.04352c-0.01625,-0.01625 -0.03076,-0.03393 -0.04353,-0.05304c-0.01277,-0.01911 -0.02355,-0.03928 -0.03234,-0.06051c-0.00879,-0.02123 -0.01543,-0.04312 -0.01992,-0.06566c-0.00448,-0.02254 -0.00672,-0.0453 -0.00672,-0.06828v-0.94c0,-0.30332 0.1075,-0.56248 0.32251,-0.77749l2.17,-2.17c0.04386,-0.04386 0.05812,-0.11451 0.04277,-0.21195c-0.07661,-0.43607 -0.03258,-0.86069 0.13209,-1.27388c0.16533,-0.41486 0.42694,-0.7543 0.78485,-1.01833c0.35811,-0.26418 0.7569,-0.41528 1.19637,-0.45329c0.43997,-0.03806 0.85928,0.04257 1.25793,0.2419zM5.99257,1.27431c-0.28063,-0.14012 -0.57518,-0.19684 -0.88366,-0.17015c-0.30846,0.02668 -0.58884,0.13308 -0.84113,0.3192c-0.25074,0.18497 -0.43412,0.42303 -0.55015,0.71417c-0.11563,0.29014 -0.1466,0.58801 -0.09291,0.89362c0.02372,0.14998 0.01866,0.29263 -0.01517,0.42795c-0.03957,0.15825 -0.11359,0.29162 -0.22206,0.4001l-2.17,2.17c-0.07833,0.07832 -0.11749,0.17249 -0.11749,0.28251v0.59h0.55v-0.4c0,-0.02298 0.00224,-0.04574 0.00673,-0.06828c0.00448,-0.02254 0.01112,-0.04443 0.01991,-0.06566c0.00879,-0.02123 0.01958,-0.0414 0.03235,-0.06051c0.01277,-0.01911 0.02727,-0.03679 0.04352,-0.05304c0.01625,-0.01625 0.03393,-0.03076 0.05304,-0.04353c0.01911,-0.01277 0.03928,-0.02355 0.06051,-0.03234c0.02123,-0.00879 0.04312,-0.01543 0.06566,-0.01992c0.02254,-0.00448 0.0453,-0.00672 0.06828,-0.00672h0.4v-0.4c0,-0.02298 0.00224,-0.04574 0.00673,-0.06828c0.00448,-0.02254 0.01112,-0.04443 0.01991,-0.06566c0.00879,-0.02123 0.01958,-0.0414 0.03235,-0.06051c0.01277,-0.01911 0.02727,-0.03679 0.04352,-0.05304c0.01625,-0.01625 0.03393,-0.03076 0.05304,-0.04353c0.01911,-0.01277 0.03928,-0.02355 0.06051,-0.03234c0.02123,-0.00879 0.04312,-0.01543 0.06566,-0.01992c0.02254,-0.00448 0.0453,-0.00672 0.06828,-0.00672h0.60503l0.78748,-0.78749c0.10848,-0.10848 0.24185,-0.1825 0.4001,-0.22206c0.13532,-0.03383 0.27598,-0.03922 0.42198,-0.01617c0.24315,0.0419 0.48255,0.03115 0.71822,-0.03226c0.23605,-0.06351 0.44651,-0.17332 0.63138,-0.32943c0.18563,-0.15675 0.32966,-0.34548 0.43209,-0.56619c0.10248,-0.22081 0.15372,-0.45294 0.15372,-0.6964c0,-0.31265 -0.08221,-0.60223 -0.24662,-0.86873c-0.16329,-0.26469 -0.38326,-0.46742 -0.65991,-0.60821zM6.6,2.75171c0,0.02298 -0.00224,0.04574 -0.00673,0.06828c-0.00448,0.02254 -0.01112,0.04443 -0.01991,0.06566c-0.00879,0.02123 -0.01958,0.0414 -0.03235,0.06051c-0.01277,0.01911 -0.02727,0.03679 -0.04352,0.05304c-0.01625,0.01625 -0.03393,0.03075 -0.05304,0.04352c-0.01911,0.01277 -0.03928,0.02355 -0.06051,0.03235c-0.02123,0.00879 -0.04312,0.01543 -0.06566,0.01991c-0.02254,0.00449 -0.0453,0.00673 -0.06828,0.00673c-0.02298,0 -0.04574,-0.00224 -0.06828,-0.00673c-0.02254,-0.00448 -0.04443,-0.01112 -0.06566,-0.01991c-0.02123,-0.0088 -0.0414,-0.01958 -0.06051,-0.03235c-0.01911,-0.01277 -0.03679,-0.02727 -0.05304,-0.04352c-0.01625,-0.01625 -0.03076,-0.03393 -0.04353,-0.05304c-0.01277,-0.01911 -0.02355,-0.03928 -0.03234,-0.06051c-0.00879,-0.02123 -0.01543,-0.04312 -0.01992,-0.06566c-0.00448,-0.02254 -0.00672,-0.0453 -0.00672,-0.06828c0,-0.17835 -0.06375,-0.33127 -0.19124,-0.45876c-0.12749,-0.12749 -0.28041,-0.19124 -0.45876,-0.19124c-0.02298,0 -0.04574,-0.00224 -0.06828,-0.00673c-0.02254,-0.00448 -0.04443,-0.01112 -0.06566,-0.01991c-0.02123,-0.0088 -0.0414,-0.01958 -0.06051,-0.03235c-0.01911,-0.01277 -0.03679,-0.02727 -0.05304,-0.04352c-0.01625,-0.01625 -0.03075,-0.03393 -0.04352,-0.05304c-0.01277,-0.01911 -0.02356,-0.03928 -0.03235,-0.06051c-0.00879,-0.02123 -0.01543,-0.04312 -0.01992,-0.06566c-0.00448,-0.02254 -0.00672,-0.0453 -0.00672,-0.06828c0,-0.02298 0.00224,-0.04574 0.00672,-0.06828c0.00449,-0.02254 0.01113,-0.04443 0.01992,-0.06566c0.00879,-0.02123 0.01958,-0.0414 0.03235,-0.06051c0.01277,-0.01911 0.02727,-0.03679 0.04352,-0.05304c0.01625,-0.01625 0.03393,-0.03076 0.05304,-0.04353c0.01911,-0.01277 0.03928,-0.02355 0.06051,-0.03234c0.02123,-0.00879 0.04312,-0.01543 0.06566,-0.01992c0.02254,-0.00448 0.0453,-0.00672 0.06828,-0.00672c0.37165,0 0.68956,0.13209 0.95374,0.39626c0.26417,0.26417 0.39626,0.58209 0.39626,0.95374z"></path></g></g><path id="矩形 2" fill-rule="evenodd" style="fill:#111111" opacity="1" d="M265 306L460 306C468.28 306 475 299.28 475 291L475 245C475 236.72 468.28 230 460 230L265 230C256.72 230 250 236.72 250 245L250 291C250 299.28 256.72 306 265 306Z"></path><path  id="路径 1" style="fill:#7A7878; opacity:1;" d="M36.1733,20.2762c0.06407,-0.0174 0.1293,-0.02613 0.1957,-0.0262c0.06633,-0.00007 0.13157,0.0085 0.1957,0.0257c0.06407,0.0172 0.1248,0.0425 0.1822,0.0759l1.6,0.93c0.0426,0.02473 0.08233,0.0534 0.1192,0.086c0.03693,0.03253 0.07033,0.0684 0.1002,0.1076c0.02987,0.03913 0.05563,0.0808 0.0773,0.125c0.02167,0.04427 0.0388,0.0902 0.0514,0.1378c0.0126,0.0476 0.02043,0.09597 0.0235,0.1451c0.00307,0.0492 0.00133,0.0982 -0.0052,0.147c-0.0066,0.0488 -0.01787,0.09647 -0.0338,0.143c-0.016,0.0466 -0.03637,0.0912 -0.0611,0.1338c-0.02473,0.0426 -0.0534,0.08237 -0.086,0.1193c-0.03253,0.03687 -0.0684,0.07023 -0.1076,0.1001c-0.03913,0.02987 -0.08083,0.05563 -0.1251,0.0773c-0.0442,0.02167 -0.0901,0.0388 -0.1377,0.0514c-0.0476,0.0126 -0.09597,0.02043 -0.1451,0.0235c-0.0492,0.00307 -0.0982,0.00133 -0.147,-0.0052c-0.0488,-0.0066 -0.0965,-0.01787 -0.1431,-0.0338c-0.04653,-0.016 -0.0911,-0.03637 -0.1337,-0.0611l-1.2219,-0.7102l-1.2125,0.7092c-0.04253,0.02487 -0.08707,0.04533 -0.1336,0.0614c-0.04653,0.01613 -0.0942,0.02753 -0.143,0.0342c-0.0488,0.00673 -0.09777,0.00863 -0.1469,0.0057c-0.0492,-0.003 -0.0976,-0.01073 -0.1452,-0.0232c-0.04767,-0.01247 -0.09363,-0.02947 -0.1379,-0.051c-0.04427,-0.02153 -0.08603,-0.04717 -0.1253,-0.0769c-0.03927,-0.0298 -0.07523,-0.0631 -0.1079,-0.0999c-0.03267,-0.03687 -0.06143,-0.07653 -0.0863,-0.119c-0.0502,-0.08587 -0.08207,-0.17807 -0.0956,-0.2766c-0.01353,-0.09853 -0.0077,-0.1959 0.0175,-0.2921c0.0252,-0.0962 0.06783,-0.18393 0.1279,-0.2632c0.06013,-0.07927 0.1331,-0.144 0.2189,-0.1942l1.59,-0.93c0.05733,-0.03353 0.118,-0.059 0.182,-0.0764zM29.6217,24.0724l1.5896,-0.9298c0.04253,-0.02487 0.08707,-0.04533 0.1336,-0.0614c0.04653,-0.01613 0.0942,-0.02753 0.143,-0.0342c0.0488,-0.00673 0.09777,-0.00863 0.1469,-0.0057c0.0492,0.003 0.0976,0.01073 0.1452,0.0232c0.04767,0.01247 0.09363,0.02947 0.1379,0.051c0.04427,0.02153 0.08603,0.04717 0.1253,0.0769c0.03927,0.02973 0.07523,0.06303 0.1079,0.0999c0.03267,0.03687 0.06143,0.07653 0.0863,0.119c0.02487,0.04253 0.04533,0.08707 0.0614,0.1336c0.01613,0.04653 0.02753,0.0942 0.0342,0.143c0.00673,0.0488 0.00863,0.09777 0.0057,0.1469c-0.003,0.0492 -0.01073,0.0976 -0.0232,0.1452c-0.01247,0.04767 -0.02947,0.09363 -0.051,0.1379c-0.02153,0.04427 -0.04717,0.08603 -0.0769,0.1253c-0.0298,0.03927 -0.0631,0.07523 -0.0999,0.1079c-0.03687,0.03267 -0.07653,0.06143 -0.119,0.0863l-0.4832,0.2826l0.4832,0.2826c0.04247,0.02487 0.08213,0.05363 0.119,0.0863c0.0368,0.03267 0.0701,0.06863 0.0999,0.1079c0.02973,0.03927 0.05537,0.08103 0.0769,0.1253c0.02153,0.04427 0.03853,0.09023 0.051,0.1379c0.01247,0.0476 0.0202,0.096 0.0232,0.1452c0.00293,0.04913 0.00103,0.0981 -0.0057,0.1469c-0.00667,0.0488 -0.01807,0.09647 -0.0342,0.143c-0.01607,0.04653 -0.03653,0.09107 -0.0614,0.1336c-0.0502,0.0858 -0.11493,0.15877 -0.1942,0.2189c-0.07927,0.06007 -0.167,0.1027 -0.2632,0.1279c-0.0962,0.0252 -0.19357,0.03103 -0.2921,0.0175c-0.09853,-0.01353 -0.19073,-0.0454 -0.2766,-0.0956l-0.4613,-0.2698v0.2824c0,0.04927 -0.0048,0.09803 -0.0144,0.1463c-0.0096,0.04833 -0.02383,0.09523 -0.0427,0.1407c-0.01887,0.04553 -0.04197,0.08877 -0.0693,0.1297c-0.02733,0.04093 -0.05843,0.0788 -0.0933,0.1136c-0.0348,0.03487 -0.07267,0.06597 -0.1136,0.0933c-0.04093,0.02733 -0.08417,0.05043 -0.1297,0.0693c-0.04547,0.01887 -0.09237,0.0331 -0.1407,0.0427c-0.04827,0.0096 -0.09703,0.0144 -0.1463,0.0144c-0.04927,0 -0.09803,-0.0048 -0.1463,-0.0144c-0.04833,-0.0096 -0.09523,-0.02383 -0.1407,-0.0427c-0.04553,-0.01887 -0.08877,-0.04197 -0.1297,-0.0693c-0.04093,-0.02733 -0.0788,-0.05843 -0.1136,-0.0933c-0.03487,-0.0348 -0.06597,-0.07267 -0.0933,-0.1136c-0.02733,-0.04093 -0.05043,-0.08417 -0.0693,-0.1297c-0.01887,-0.04547 -0.0331,-0.09237 -0.0427,-0.1407c-0.0096,-0.04827 -0.0144,-0.09703 -0.0144,-0.1463v-1.59c0,-0.0644 0.00817,-0.12773 0.0245,-0.19c0.0154,-0.0588 0.0376,-0.11487 0.0666,-0.1682c0.00373,-0.00687 0.00757,-0.0137 0.0115,-0.0205c0.06613,-0.113 0.1557,-0.20257 0.2687,-0.2687l0.0003,-0.0001zM41.2645,24.72l-0.4832,-0.2826c-0.04247,-0.02487 -0.08213,-0.05363 -0.119,-0.0863c-0.03687,-0.03267 -0.07017,-0.06863 -0.0999,-0.1079c-0.02973,-0.03927 -0.05537,-0.08103 -0.0769,-0.1253c-0.02153,-0.04427 -0.03853,-0.09023 -0.051,-0.1379c-0.01253,-0.0476 -0.02027,-0.096 -0.0232,-0.1452c-0.00293,-0.04913 -0.00103,-0.0981 0.0057,-0.1469c0.00667,-0.0488 0.01807,-0.09647 0.0342,-0.143c0.01607,-0.04653 0.03653,-0.09107 0.0614,-0.1336c0.0502,-0.0858 0.11493,-0.15877 0.1942,-0.2189c0.07927,-0.06007 0.167,-0.1027 0.2632,-0.1279c0.0962,-0.0252 0.19357,-0.03103 0.2921,-0.0175c0.09853,0.01353 0.19073,0.0454 0.2766,0.0956l1.5894,0.9297l0.0002,0.0001l0.0004,0.0002c0.1048,0.06133 0.18973,0.1433 0.2548,0.2459c0.00473,0.00753 0.00937,0.01513 0.0139,0.0228c0.06167,0.10553 0.09557,0.21933 0.1017,0.3414c0.0006,0.01207 0.0009,0.02417 0.0009,0.0363v0.001v1.59c0,0.04927 -0.0048,0.09803 -0.0144,0.1463c-0.0096,0.04833 -0.02383,0.09523 -0.0427,0.1407c-0.01887,0.04553 -0.04197,0.08877 -0.0693,0.1297c-0.02733,0.04093 -0.05843,0.0788 -0.0933,0.1136c-0.0348,0.03487 -0.07267,0.06597 -0.1136,0.0933c-0.04093,0.02733 -0.08417,0.05043 -0.1297,0.0693c-0.04547,0.01887 -0.09237,0.0331 -0.1407,0.0427c-0.04827,0.0096 -0.09703,0.0144 -0.1463,0.0144c-0.04927,0 -0.09803,-0.0048 -0.1463,-0.0144c-0.04833,-0.0096 -0.09523,-0.02383 -0.1407,-0.0427c-0.04553,-0.01887 -0.08877,-0.04197 -0.1297,-0.0693c-0.04093,-0.02733 -0.0788,-0.05843 -0.1136,-0.0933c-0.03487,-0.0348 -0.06597,-0.07267 -0.0933,-0.1136c-0.02733,-0.04093 -0.05043,-0.08417 -0.0693,-0.1297c-0.01887,-0.04547 -0.0331,-0.09237 -0.0427,-0.1407c-0.0096,-0.04827 -0.0144,-0.09703 -0.0144,-0.1463v-0.2824l-0.4613,0.2698c-0.08587,0.0502 -0.17807,0.08207 -0.2766,0.0956c-0.09853,0.01353 -0.1959,0.0077 -0.2921,-0.0175c-0.0962,-0.0252 -0.18393,-0.06783 -0.2632,-0.1279c-0.07927,-0.06013 -0.144,-0.1331 -0.1942,-0.2189c-0.02487,-0.04253 -0.04533,-0.08707 -0.0614,-0.1336c-0.01613,-0.04653 -0.02753,-0.0942 -0.0342,-0.143c-0.00673,-0.0488 -0.00863,-0.09777 -0.0057,-0.1469c0.003,-0.0492 0.01073,-0.0976 0.0232,-0.1452c0.01247,-0.04767 0.02947,-0.09363 0.051,-0.1379c0.02153,-0.04427 0.04717,-0.08603 0.0769,-0.1253c0.02973,-0.03927 0.06303,-0.07523 0.0999,-0.1079c0.03687,-0.03267 0.07653,-0.06143 0.119,-0.0863zM37.12,28.8716v1.1584c0,0.04927 -0.0048,0.09803 -0.0144,0.1463c-0.0096,0.04833 -0.02383,0.09523 -0.0427,0.1407c-0.01887,0.04553 -0.04197,0.08877 -0.0693,0.1297c-0.02733,0.04093 -0.05843,0.0788 -0.0933,0.1136c-0.0348,0.03487 -0.07267,0.06597 -0.1136,0.0933c-0.04093,0.02733 -0.08417,0.05043 -0.1297,0.0693c-0.04547,0.01887 -0.09237,0.0331 -0.1407,0.0427c-0.04827,0.0096 -0.09703,0.0144 -0.1463,0.0144c-0.04927,0 -0.09803,-0.0048 -0.1463,-0.0144c-0.04833,-0.0096 -0.09523,-0.02383 -0.1407,-0.0427c-0.04553,-0.01887 -0.08877,-0.04197 -0.1297,-0.0693c-0.04093,-0.02733 -0.0788,-0.05843 -0.1136,-0.0933c-0.03487,-0.0348 -0.06597,-0.07267 -0.0933,-0.1136c-0.0274,-0.04093 -0.0505,-0.08417 -0.0693,-0.1297c-0.01887,-0.04547 -0.0331,-0.09237 -0.0427,-0.1407c-0.0096,-0.04827 -0.0144,-0.09703 -0.0144,-0.1463v-1.1598l-1.2187,-0.7128c-0.04247,-0.02487 -0.08213,-0.05363 -0.119,-0.0863c-0.03687,-0.03267 -0.07017,-0.06863 -0.0999,-0.1079c-0.02973,-0.03927 -0.05537,-0.08103 -0.0769,-0.1253c-0.02153,-0.04427 -0.03853,-0.09023 -0.051,-0.1379c-0.01247,-0.0476 -0.0202,-0.096 -0.0232,-0.1452c-0.00293,-0.04913 -0.00103,-0.0981 0.0057,-0.1469c0.00667,-0.0488 0.01807,-0.09647 0.0342,-0.143c0.01607,-0.04653 0.03653,-0.09107 0.0614,-0.1336c0.02487,-0.04247 0.05363,-0.08213 0.0863,-0.119c0.03267,-0.03687 0.06863,-0.07017 0.1079,-0.0999c0.03927,-0.02973 0.08103,-0.05537 0.1253,-0.0769c0.04427,-0.02153 0.09023,-0.03853 0.1379,-0.051c0.0476,-0.01247 0.096,-0.0202 0.1452,-0.0232c0.04913,-0.00293 0.0981,-0.00103 0.1469,0.0057c0.0488,0.00667 0.09647,0.01807 0.143,0.0342c0.04653,0.01607 0.09107,0.03653 0.1336,0.0614l1.2125,0.7092l1.2219,-0.7102c0.0426,-0.02473 0.08717,-0.0451 0.1337,-0.0611c0.0466,-0.01593 0.0943,-0.0272 0.1431,-0.0338c0.0488,-0.0066 0.0978,-0.00833 0.147,-0.0052c0.04913,0.00307 0.0975,0.0109 0.1451,0.0235c0.0476,0.0126 0.0935,0.02973 0.1377,0.0514c0.04427,0.02167 0.08597,0.04743 0.1251,0.0773c0.0392,0.0298 0.07507,0.06317 0.1076,0.1001c0.0326,0.03693 0.06127,0.0767 0.086,0.1193c0.05,0.086 0.08163,0.17827 0.0949,0.2768c0.01327,0.0986 0.00717,0.19597 -0.0183,0.2921c-0.02547,0.09613 -0.06837,0.18373 -0.1287,0.2628c-0.06027,0.07913 -0.1334,0.14367 -0.2194,0.1936zM29.4674,31.6181c-0.04607,-0.04653 -0.0854,-0.09817 -0.118,-0.1549c-0.03253,-0.0568 -0.05723,-0.11683 -0.0741,-0.1801c-0.01687,-0.06327 -0.0253,-0.12763 -0.0253,-0.1931v-1.59c0,-0.04927 0.0048,-0.09803 0.0144,-0.1463c0.0096,-0.04833 0.02383,-0.09523 0.0427,-0.1407c0.01887,-0.04553 0.04197,-0.08877 0.0693,-0.1297c0.02733,-0.04093 0.05843,-0.0788 0.0933,-0.1136c0.0348,-0.03487 0.07267,-0.06597 0.1136,-0.0933c0.04093,-0.02733 0.08417,-0.05043 0.1297,-0.0693c0.04547,-0.01887 0.09237,-0.0331 0.1407,-0.0427c0.04827,-0.0096 0.09703,-0.0144 0.1463,-0.0144c0.04927,0 0.09803,0.0048 0.1463,0.0144c0.04833,0.0096 0.09523,0.02383 0.1407,0.0427c0.04553,0.01887 0.08877,0.04197 0.1297,0.0693c0.04093,0.02733 0.0788,0.05843 0.1136,0.0933c0.03487,0.0348 0.06597,0.07267 0.0933,0.1136c0.02733,0.04093 0.05043,0.08417 0.0693,0.1297c0.01887,0.04547 0.0331,0.09237 0.0427,0.1407c0.0096,0.04827 0.0144,0.09703 0.0144,0.1463v1.1598l1.2187,0.7128c0.0858,0.0502 0.15877,0.11493 0.2189,0.1942c0.06007,0.07927 0.1027,0.167 0.1279,0.2632c0.0252,0.0962 0.03103,0.19357 0.0175,0.2921c-0.01353,0.09853 -0.0454,0.19073 -0.0956,0.2766c-0.02487,0.04247 -0.05363,0.08213 -0.0863,0.119c-0.03267,0.0368 -0.06863,0.0701 -0.1079,0.0999c-0.03927,0.02973 -0.08103,0.05537 -0.1253,0.0769c-0.04427,0.02153 -0.09023,0.03853 -0.1379,0.051c-0.0476,0.01247 -0.096,0.0202 -0.1452,0.0232c-0.04913,0.00293 -0.0981,0.00103 -0.1469,-0.0057c-0.0488,-0.00667 -0.09647,-0.01807 -0.143,-0.0342c-0.04653,-0.01607 -0.09107,-0.03653 -0.1336,-0.0614l-1.59,-0.93c-0.05647,-0.03307 -0.10777,-0.07283 -0.1539,-0.1193zM43.4747,31.2831c-0.01687,0.06327 -0.04157,0.1233 -0.0741,0.1801c-0.0326,0.05673 -0.07193,0.10837 -0.118,0.1549c-0.04613,0.04647 -0.09743,0.08623 -0.1539,0.1193l-1.59,0.93c-0.04253,0.02487 -0.08707,0.04533 -0.1336,0.0614c-0.04653,0.01613 -0.0942,0.02753 -0.143,0.0342c-0.0488,0.00673 -0.09777,0.00863 -0.1469,0.0057c-0.0492,-0.003 -0.0976,-0.01073 -0.1452,-0.0232c-0.04767,-0.01247 -0.09363,-0.02947 -0.1379,-0.051c-0.04427,-0.02153 -0.08603,-0.04717 -0.1253,-0.0769c-0.03927,-0.0298 -0.07523,-0.0631 -0.1079,-0.0999c-0.03267,-0.03687 -0.06143,-0.07653 -0.0863,-0.119c-0.02487,-0.04253 -0.04533,-0.08707 -0.0614,-0.1336c-0.01613,-0.04653 -0.02753,-0.0942 -0.0342,-0.143c-0.00673,-0.0488 -0.00863,-0.09777 -0.0057,-0.1469c0.00293,-0.0492 0.01067,-0.0976 0.0232,-0.1452c0.01247,-0.04767 0.02947,-0.09363 0.051,-0.1379c0.02153,-0.04427 0.04717,-0.08603 0.0769,-0.1253c0.02973,-0.03927 0.06303,-0.07523 0.0999,-0.1079c0.03687,-0.03267 0.07653,-0.06143 0.119,-0.0863l1.2187,-0.7128v-1.1598c0,-0.04927 0.0048,-0.09803 0.0144,-0.1463c0.0096,-0.04833 0.02383,-0.09523 0.0427,-0.1407c0.01887,-0.04553 0.04197,-0.08877 0.0693,-0.1297c0.02733,-0.04093 0.05843,-0.0788 0.0933,-0.1136c0.0348,-0.03487 0.07267,-0.06597 0.1136,-0.0933c0.04093,-0.02733 0.08417,-0.05043 0.1297,-0.0693c0.04547,-0.01887 0.09237,-0.0331 0.1407,-0.0427c0.04827,-0.0096 0.09703,-0.0144 0.1463,-0.0144c0.04927,0 0.09803,0.0048 0.1463,0.0144c0.04833,0.0096 0.09523,0.02383 0.1407,0.0427c0.04553,0.01887 0.08877,0.04197 0.1297,0.0693c0.04093,0.02733 0.0788,0.05843 0.1136,0.0933c0.03487,0.0348 0.06597,0.07267 0.0933,0.1136c0.02733,0.04093 0.05043,0.08417 0.0693,0.1297c0.01887,0.04547 0.0331,0.09237 0.0427,0.1407c0.0096,0.04827 0.0144,0.09703 0.0144,0.1463v1.59c0,0.06547 -0.00843,0.12983 -0.0253,0.1931zM35.9908,35.4571l-1.5895,-0.9297c-0.04247,-0.02487 -0.08213,-0.05363 -0.119,-0.0863c-0.03687,-0.03267 -0.07017,-0.06863 -0.0999,-0.1079c-0.02973,-0.03927 -0.05537,-0.08103 -0.0769,-0.1253c-0.02153,-0.04427 -0.03853,-0.09023 -0.051,-0.1379c-0.01247,-0.0476 -0.0202,-0.096 -0.0232,-0.1452c-0.00293,-0.04913 -0.00103,-0.0981 0.0057,-0.1469c0.00667,-0.0488 0.01807,-0.09647 0.0342,-0.143c0.01607,-0.04653 0.03653,-0.09107 0.0614,-0.1336c0.0502,-0.0858 0.11493,-0.15877 0.1942,-0.2189c0.07927,-0.06007 0.167,-0.1027 0.2632,-0.1279c0.0962,-0.0252 0.19357,-0.03103 0.2921,-0.0175c0.09853,0.01353 0.19073,0.0454 0.2766,0.0956l0.4613,0.2698v-0.2824c0,-0.04927 0.0048,-0.09803 0.0144,-0.1463c0.0096,-0.04833 0.02383,-0.09523 0.0427,-0.1407c0.0188,-0.04553 0.0419,-0.08877 0.0693,-0.1297c0.02733,-0.04093 0.05843,-0.0788 0.0933,-0.1136c0.0348,-0.03487 0.07267,-0.06597 0.1136,-0.0933c0.04093,-0.02733 0.08417,-0.05043 0.1297,-0.0693c0.04547,-0.01887 0.09237,-0.0331 0.1407,-0.0427c0.04827,-0.0096 0.09703,-0.0144 0.1463,-0.0144c0.04927,0 0.09803,0.0048 0.1463,0.0144c0.04833,0.0096 0.09523,0.02383 0.1407,0.0427c0.04553,0.01887 0.08877,0.04197 0.1297,0.0693c0.04093,0.02733 0.0788,0.05843 0.1136,0.0933c0.03487,0.0348 0.06597,0.07267 0.0933,0.1136c0.02733,0.04093 0.05043,0.08417 0.0693,0.1297c0.01887,0.04547 0.0331,0.09237 0.0427,0.1407c0.0096,0.04827 0.0144,0.09703 0.0144,0.1463v0.2866l0.4731,-0.275c0.0426,-0.02473 0.08717,-0.0451 0.1337,-0.0611c0.0466,-0.01593 0.0943,-0.0272 0.1431,-0.0338c0.0488,-0.0066 0.0978,-0.00833 0.147,-0.0052c0.04913,0.00307 0.0975,0.0109 0.1451,0.0235c0.0476,0.0126 0.0935,0.02973 0.1377,0.0514c0.04427,0.0216 0.08597,0.04733 0.1251,0.0772c0.0392,0.02987 0.07507,0.06327 0.1076,0.1002c0.0326,0.03693 0.06127,0.0767 0.086,0.1193c0.02473,0.0426 0.0451,0.08717 0.0611,0.1337c0.01593,0.0466 0.0272,0.0943 0.0338,0.1431c0.00653,0.0488 0.00827,0.0978 0.0052,0.147c-0.00307,0.04913 -0.0109,0.0975 -0.0235,0.1451c-0.0126,0.0476 -0.02973,0.0935 -0.0514,0.1377c-0.02167,0.04427 -0.04743,0.08597 -0.0773,0.1251c-0.02987,0.0392 -0.06327,0.07507 -0.1002,0.1076c-0.03687,0.0326 -0.0766,0.06127 -0.1192,0.086l-1.5999,0.9299l-0.0001,0.0001c-0.05353,0.03113 -0.11007,0.05527 -0.1696,0.0724c-0.00573,0.00167 -0.0115,0.00323 -0.0173,0.0047c-0.06227,0.01633 -0.1256,0.0245 -0.19,0.0245c-0.1216,0 -0.23643,-0.02793 -0.3445,-0.0838c-0.01153,-0.006 -0.02293,-0.01227 -0.0342,-0.0188l-0.0005,-0.0003z"></path><g opacity="1"  transform="translate(456 19)  rotate(0)"><mask id="bg-mask-3" fill="white"><use xlink:href="#path_3"></use></mask><g mask="url(#bg-mask-3)" ><path  id="路径 1" style="fill:#914154; opacity:1;" d="M13.7197,4.21967c0.07033,-0.07033 0.15143,-0.12452 0.2433,-0.16258c0.09187,-0.03806 0.18753,-0.05709 0.287,-0.05709c0.09947,0 0.19513,0.01903 0.287,0.05709c0.09187,0.03806 0.17297,0.09225 0.2433,0.16258c0.03487,0.03482 0.06597,0.0727 0.0933,0.11365c0.02733,0.04095 0.05043,0.08417 0.0693,0.12967c0.01887,0.04549 0.0331,0.09239 0.0427,0.14069c0.0096,0.0483 0.0144,0.09707 0.0144,0.14632c0,0.04925 -0.0048,0.09802 -0.0144,0.14632c-0.0096,0.0483 -0.02383,0.0952 -0.0427,0.14069c-0.01887,0.0455 -0.04197,0.08872 -0.0693,0.12967c-0.02733,0.04095 -0.05843,0.07883 -0.0933,0.11365l-4.2196,4.21967l4.2196,4.2197c0.03487,0.0348 0.06597,0.07267 0.0933,0.1136c0.02733,0.04093 0.05043,0.08417 0.0693,0.1297c0.01887,0.04547 0.0331,0.09237 0.0427,0.1407c0.0096,0.04827 0.0144,0.09703 0.0144,0.1463c0,0.04927 -0.0048,0.09803 -0.0144,0.1463c-0.0096,0.04833 -0.02383,0.09523 -0.0427,0.1407c-0.01887,0.04553 -0.04197,0.08877 -0.0693,0.1297c-0.02733,0.04093 -0.05843,0.0788 -0.0933,0.1136c-0.0348,0.03487 -0.07267,0.06597 -0.1136,0.0933c-0.04093,0.02733 -0.08417,0.05043 -0.1297,0.0693c-0.04547,0.01887 -0.09237,0.0331 -0.1407,0.0427c-0.04827,0.0096 -0.09703,0.0144 -0.1463,0.0144c-0.04927,0 -0.09803,-0.0048 -0.1463,-0.0144c-0.04833,-0.0096 -0.09523,-0.02383 -0.1407,-0.0427c-0.04553,-0.01887 -0.08877,-0.04197 -0.1297,-0.0693c-0.04093,-0.02733 -0.0788,-0.05843 -0.1136,-0.0933l-4.2197,-4.2196l-4.21967,4.2196c-0.03482,0.03487 -0.0727,0.06597 -0.11365,0.0933c-0.04095,0.02733 -0.08417,0.05043 -0.12967,0.0693c-0.04549,0.01887 -0.09239,0.0331 -0.14069,0.0427c-0.0483,0.0096 -0.09707,0.0144 -0.14632,0.0144c-0.04925,0 -0.09802,-0.0048 -0.14632,-0.0144c-0.0483,-0.0096 -0.0952,-0.02383 -0.14069,-0.0427c-0.0455,-0.01887 -0.08872,-0.04197 -0.12967,-0.0693c-0.04095,-0.02733 -0.07883,-0.05843 -0.11365,-0.0933c-0.07033,-0.07033 -0.12452,-0.15143 -0.16258,-0.2433c-0.03806,-0.09187 -0.05709,-0.18753 -0.05709,-0.287c0,-0.09947 0.01903,-0.19513 0.05709,-0.287c0.03806,-0.09187 0.09225,-0.17297 0.16258,-0.2433l4.21967,-4.2197l-4.21967,-4.21967c-0.03482,-0.03482 -0.06591,-0.0727 -0.09327,-0.11365c-0.02736,-0.04095 -0.05046,-0.08417 -0.06931,-0.12967c-0.01885,-0.04549 -0.03307,-0.09239 -0.04268,-0.14069c-0.00961,-0.0483 -0.01441,-0.09707 -0.01441,-0.14632c0,-0.04925 0.0048,-0.09802 0.01441,-0.14632c0.00961,-0.0483 0.02383,-0.0952 0.04268,-0.14069c0.01885,-0.0455 0.04195,-0.08872 0.06931,-0.12967c0.02736,-0.04095 0.05845,-0.07883 0.09327,-0.11365c0.03482,-0.03482 0.0727,-0.06591 0.11365,-0.09327c0.04095,-0.02736 0.08417,-0.05046 0.12967,-0.06931c0.04549,-0.01885 0.09239,-0.03307 0.14069,-0.04268c0.0483,-0.00961 0.09707,-0.01441 0.14632,-0.01441c0.04925,0 0.09802,0.0048 0.14632,0.01441c0.0483,0.00961 0.0952,0.02383 0.14069,0.04268c0.0455,0.01885 0.08872,0.04195 0.12967,0.06931c0.04095,0.02736 0.07883,0.05845 0.11365,0.09327l4.21967,4.21967z"></path></g></g><g opacity="1"  transform="translate(67 134)  rotate(0)"><g opacity="1"  transform="translate(0 0)  rotate(0)"><path id="圆形 1" fill-rule="evenodd" style="fill:#000000" opacity="1" d="M61.5 0C27.53 0 0 27.53 0 61.5C0 95.47 27.53 123 61.5 123C95.47 123 123 95.47 123 61.5C123 27.53 95.47 0 61.5 0Z"></path><path id="圆形 1" fill-rule="evenodd" style="fill:#000000" opacity="0.2" d="M61.5 0C27.53 0 0 27.53 0 61.5C0 95.47 27.53 123 61.5 123C95.47 123 123 95.47 123 61.5C123 27.53 95.47 0 61.5 0Z"></path><path  id="圆形 1" style="fill:#000000; opacity:1;" d="M61.5,-15c5.20533,0 10.3394,0.5179 15.4022,1.5537c4.94207,1.01107 9.7357,2.49882 14.3809,4.46327c4.55767,1.92746 8.8913,4.27928 13.0009,7.05546c4.06667,2.74722 7.837,5.85796 11.311,9.33221c3.47467,3.47424 6.58567,7.24473 9.333,11.31146c2.776,4.10953 5.12767,8.44317 7.055,13.0009c1.96467,4.6452 3.45233,9.4388 4.463,14.3808c1.036,5.0628 1.554,10.19687 1.554,15.4022c0,5.20533 -0.518,10.3394 -1.554,15.4022c-1.01067,4.94207 -2.49833,9.7357 -4.463,14.3809c-1.92733,4.55767 -4.279,8.8913 -7.055,13.0009c-2.74733,4.06667 -5.85833,7.837 -9.333,11.311c-3.474,3.47467 -7.24433,6.58567 -11.311,9.333c-4.1096,2.776 -8.44323,5.12767 -13.0009,7.055c-4.6452,1.96467 -9.43883,3.45233 -14.3809,4.463c-5.0628,1.036 -10.19687,1.554 -15.4022,1.554c-5.20533,0 -10.3394,-0.518 -15.4022,-1.554c-4.94207,-1.01067 -9.73567,-2.49833 -14.3808,-4.463c-4.55767,-1.92733 -8.8913,-4.279 -13.0009,-7.055c-4.06673,-2.74733 -7.83722,-5.85833 -11.31145,-9.333c-3.47425,-3.474 -6.58499,-7.24433 -9.33222,-11.311c-2.77617,-4.1096 -5.12799,-8.44323 -7.05545,-13.0009c-1.96445,-4.6452 -3.45221,-9.43883 -4.46328,-14.3809c-1.0358,-5.0628 -1.5537,-10.19687 -1.5537,-15.4022c0,-5.20533 0.5179,-10.3394 1.5537,-15.4022c1.01107,-4.94207 2.49882,-9.73567 4.46327,-14.3808c1.92747,-4.55773 4.27929,-8.89137 7.05546,-13.0009c2.74722,-4.06673 5.85796,-7.83722 9.33221,-11.31145c3.47424,-3.47425 7.24473,-6.58499 11.31146,-9.33222c4.10953,-2.77617 8.44317,-5.12798 13.0009,-7.05545c4.64513,-1.96445 9.43873,-3.45221 14.3808,-4.46328c5.0628,-1.0358 10.19687,-1.5537 15.4022,-1.5537zM61.5,0c-33.97,0 -61.5,27.53 -61.5,61.5c0,33.97 27.53,61.5 61.5,61.5c33.97,0 61.5,-27.53 61.5,-61.5c0,-33.97 -27.53,-61.5 -61.5,-61.5z"></path></g></g><g opacity="1"  transform="translate(38 325)  rotate(0)"><path id="矩形 4" fill-rule="evenodd" style="fill:#000000" opacity="1" d="M9 47L117 47C121.97 47 126 42.97 126 38L126 9C126 4.03 121.97 0 117 0L9 0C4.03 0 0 4.03 0 9L0 38C0 42.97 4.03 47 9 47Z"></path></g><g opacity="1"  transform="translate(188 325)  rotate(0)"><path id="矩形 4" fill-rule="evenodd" style="fill:#000000" opacity="1" d="M9 47L117 47C121.97 47 126 42.97 126 38L126 9C126 4.03 121.97 0 117 0L9 0C4.03 0 0 4.03 0 9L0 38C0 42.97 4.03 47 9 47Z"></path><g opacity="1"  transform="translate(10 12)  rotate(0)"><mask id="bg-mask-4" fill="white"><use xlink:href="#path_4"></use></mask><g mask="url(#bg-mask-4)" ><g opacity="1"  transform="translate(0 1)  rotate(0)"><mask id="bg-mask-5" fill="white"><use xlink:href="#path_5"></use></mask><g mask="url(#bg-mask-5)" ></g></g></g></g></g><g opacity="1"  transform="translate(338 325)  rotate(0)"><path id="矩形 4" fill-rule="evenodd" style="fill:#000000" opacity="1" d="M9 47L117 47C121.97 47 126 42.97 126 38L126 9C126 4.03 121.97 0 117 0L9 0C4.03 0 0 4.03 0 9L0 38C0 42.97 4.03 47 9 47Z"></path><g opacity="1"  transform="translate(12 13)  rotate(0)"><mask id="bg-mask-6" fill="white"><use xlink:href="#path_6"></use></mask><g mask="url(#bg-mask-6)" ><g opacity="1"  transform="translate(0 0)  rotate(0)"><mask id="bg-mask-7" fill="white"><use xlink:href="#path_7"></use></mask><g mask="url(#bg-mask-7)" ></g></g></g></g></g><g opacity="1"  transform="translate(358.1875 148.1875)  rotate(0)"><mask id="bg-mask-8" fill="white"><use xlink:href="#path_8"></use></mask><g mask="url(#bg-mask-8)" ></g></g><path  id="矩形 3" style="fill:#292929; opacity:1;" d="M268.524,197.476c-0.32267,-0.32267 -0.57233,-0.69367 -0.749,-1.113c-0.18333,-0.43333 -0.275,-0.88767 -0.275,-1.363v-12c0,-0.47533 0.09167,-0.93 0.275,-1.364c0.17667,-0.41867 0.42633,-0.78933 0.749,-1.112c0.32267,-0.32267 0.69367,-0.57233 1.113,-0.749c0.43333,-0.18333 0.88767,-0.275 1.363,-0.275h89c0.47533,0 0.93,0.09167 1.364,0.275c0.41867,0.17667 0.78933,0.42633 1.112,0.749c0.32267,0.32267 0.57233,0.69333 0.749,1.112c0.18333,0.434 0.275,0.88867 0.275,1.364v12c0,0.47533 -0.09167,0.92967 -0.275,1.363c-0.17667,0.41933 -0.42633,0.79033 -0.749,1.113c-0.32267,0.32267 -0.69333,0.57233 -1.112,0.749c-0.434,0.18333 -0.88867,0.275 -1.364,0.275h-89c-0.47533,0 -0.92967,-0.09167 -1.363,-0.275c-0.41933,-0.17667 -0.79033,-0.42633 -1.113,-0.749zM360.975,197.304c0.29867,-0.126 0.56333,-0.30433 0.794,-0.535c0.23067,-0.23067 0.409,-0.49533 0.535,-0.794c0.13067,-0.31 0.196,-0.635 0.196,-0.975v-12c0,-0.34 -0.06533,-0.665 -0.196,-0.975c-0.126,-0.29867 -0.30433,-0.56333 -0.535,-0.794c-0.23067,-0.23067 -0.49533,-0.409 -0.794,-0.535c-0.31,-0.13067 -0.635,-0.196 -0.975,-0.196h-89c-0.34,0 -0.665,0.06533 -0.975,0.196c-0.29867,0.126 -0.56333,0.30433 -0.794,0.535c-0.23067,0.23067 -0.409,0.49533 -0.535,0.794c-0.13067,0.31 -0.196,0.635 -0.196,0.975v12c0,0.34 0.06533,0.665 0.196,0.975c0.126,0.29867 0.30433,0.56333 0.535,0.794c0.23067,0.23067 0.49533,0.409 0.794,0.535c0.31,0.13067 0.635,0.196 0.975,0.196h89c0.34,0 0.665,-0.06533 0.975,-0.196z"></path><path  id="矩形 3" style="fill:#292929; opacity:1;" d="M265.524,295.476c-0.32267,-0.32267 -0.57233,-0.69367 -0.749,-1.113c-0.18333,-0.43333 -0.275,-0.88767 -0.275,-1.363v-12c0,-0.47533 0.09167,-0.92967 0.275,-1.363c0.17667,-0.41933 0.42633,-0.79033 0.749,-1.113c0.32267,-0.32267 0.69367,-0.57233 1.113,-0.749c0.43333,-0.18333 0.88767,-0.275 1.363,-0.275h119c0.47533,0 0.93,0.09167 1.364,0.275c0.41867,0.17667 0.78933,0.42633 1.112,0.749c0.32267,0.32267 0.57233,0.69367 0.749,1.113c0.18333,0.43333 0.275,0.88767 0.275,1.363v12c0,0.47533 -0.09167,0.92967 -0.275,1.363c-0.17667,0.41933 -0.42633,0.79033 -0.749,1.113c-0.32267,0.32267 -0.69333,0.57233 -1.112,0.749c-0.434,0.18333 -0.88867,0.275 -1.364,0.275h-119c-0.47533,0 -0.92967,-0.09167 -1.363,-0.275c-0.41933,-0.17667 -0.79033,-0.42633 -1.113,-0.749zM387.975,295.304c0.29867,-0.126 0.56333,-0.30433 0.794,-0.535c0.23067,-0.23067 0.409,-0.49533 0.535,-0.794c0.13067,-0.31 0.196,-0.635 0.196,-0.975v-12c0,-0.34 -0.06533,-0.665 -0.196,-0.975c-0.126,-0.29867 -0.30433,-0.56333 -0.535,-0.794c-0.23067,-0.23067 -0.49533,-0.409 -0.794,-0.535c-0.31,-0.13067 -0.635,-0.196 -0.975,-0.196h-119c-0.34,0 -0.665,0.06533 -0.975,0.196c-0.29867,0.126 -0.56333,0.30433 -0.794,0.535c-0.23067,0.23067 -0.409,0.49533 -0.535,0.794c-0.13067,0.31 -0.196,0.635 -0.196,0.975v12c0,0.34 0.06533,0.665 0.196,0.975c0.126,0.29867 0.30433,0.56333 0.535,0.794c0.23067,0.23067 0.49533,0.409 0.794,0.535c0.31,0.13067 0.635,0.196 0.975,0.196h119c0.34,0 0.665,-0.06533 0.975,-0.196z"></path><path  id="矩形 3" style="fill:#292929; opacity:1;" d="M367.524,197.476c-0.32267,-0.32267 -0.57233,-0.69367 -0.749,-1.113c-0.18333,-0.43333 -0.275,-0.88767 -0.275,-1.363v-12c0,-0.47533 0.09167,-0.93 0.275,-1.364c0.17667,-0.41867 0.42633,-0.78933 0.749,-1.112c0.32267,-0.32267 0.69367,-0.57233 1.113,-0.749c0.43333,-0.18333 0.88767,-0.275 1.363,-0.275h47c0.47533,0 0.92967,0.09167 1.363,0.275c0.41933,0.17667 0.79033,0.42633 1.113,0.749c0.32267,0.32267 0.57233,0.69333 0.749,1.112c0.18333,0.434 0.275,0.88867 0.275,1.364v12c0,0.47533 -0.09167,0.92967 -0.275,1.363c-0.17667,0.41933 -0.42633,0.79033 -0.749,1.113c-0.32267,0.32267 -0.69367,0.57233 -1.113,0.749c-0.43333,0.18333 -0.88767,0.275 -1.363,0.275h-47c-0.47533,0 -0.92967,-0.09167 -1.363,-0.275c-0.41933,-0.17667 -0.79033,-0.42633 -1.113,-0.749zM417.975,197.304c0.29867,-0.126 0.56333,-0.30433 0.794,-0.535c0.23067,-0.23067 0.409,-0.49533 0.535,-0.794c0.13067,-0.31 0.196,-0.635 0.196,-0.975v-12c0,-0.34 -0.06533,-0.665 -0.196,-0.975c-0.126,-0.29867 -0.30433,-0.56333 -0.535,-0.794c-0.23067,-0.23067 -0.49533,-0.409 -0.794,-0.535c-0.31,-0.13067 -0.635,-0.196 -0.975,-0.196h-47c-0.34,0 -0.665,0.06533 -0.975,0.196c-0.29867,0.126 -0.56333,0.30433 -0.794,0.535c-0.23067,0.23067 -0.409,0.49533 -0.535,0.794c-0.13067,0.31 -0.196,0.635 -0.196,0.975v12c0,0.34 0.06533,0.665 0.196,0.975c0.126,0.29867 0.30433,0.56333 0.535,0.794c0.23067,0.23067 0.49533,0.409 0.794,0.535c0.31,0.13067 0.635,0.196 0.975,0.196h47c0.34,0 0.665,-0.06533 0.975,-0.196z"></path><path  id="矩形 3" style="fill:#292929; opacity:1;" d="M398.524,295.476c-0.32267,-0.32267 -0.57233,-0.69367 -0.749,-1.113c-0.18333,-0.43333 -0.275,-0.88767 -0.275,-1.363v-12c0,-0.47533 0.09167,-0.92967 0.275,-1.363c0.17667,-0.41933 0.42633,-0.79033 0.749,-1.113c0.32267,-0.32267 0.69367,-0.57233 1.113,-0.749c0.43333,-0.18333 0.88767,-0.275 1.363,-0.275h47c0.47533,0 0.92967,0.09167 1.363,0.275c0.41933,0.17667 0.79033,0.42633 1.113,0.749c0.32267,0.32267 0.57233,0.69367 0.749,1.113c0.18333,0.43333 0.275,0.88767 0.275,1.363v12c0,0.47533 -0.09167,0.92967 -0.275,1.363c-0.17667,0.41933 -0.42633,0.79033 -0.749,1.113c-0.32267,0.32267 -0.69367,0.57233 -1.113,0.749c-0.43333,0.18333 -0.88767,0.275 -1.363,0.275h-47c-0.47533,0 -0.92967,-0.09167 -1.363,-0.275c-0.41933,-0.17667 -0.79033,-0.42633 -1.113,-0.749zM448.975,295.304c0.29867,-0.126 0.56333,-0.30433 0.794,-0.535c0.23067,-0.23067 0.409,-0.49533 0.535,-0.794c0.13067,-0.31 0.196,-0.635 0.196,-0.975v-12c0,-0.34 -0.06533,-0.665 -0.196,-0.975c-0.126,-0.29867 -0.30433,-0.56333 -0.535,-0.794c-0.23067,-0.23067 -0.49533,-0.409 -0.794,-0.535c-0.31,-0.13067 -0.635,-0.196 -0.975,-0.196h-47c-0.34,0 -0.665,0.06533 -0.975,0.196c-0.29867,0.126 -0.56333,0.30433 -0.794,0.535c-0.23067,0.23067 -0.409,0.49533 -0.535,0.794c-0.13067,0.31 -0.196,0.635 -0.196,0.975v12c0,0.34 0.06533,0.665 0.196,0.975c0.126,0.29867 0.30433,0.56333 0.535,0.794c0.23067,0.23067 0.49533,0.409 0.794,0.535c0.31,0.13067 0.635,0.196 0.975,0.196h47c0.34,0 0.665,-0.06533 0.975,-0.196z"></path></g></g><defs><rect id="path_0" x="0" y="0" width="500" height="391" /><rect id="path_1" x="0" y="0" width="8" height="8" /><rect id="path_2" x="0" y="0" width="8" height="8" /><rect id="path_3" x="0" y="0" width="19" height="19" /><rect id="path_4" x="0" y="0" width="24" height="24" /><rect id="path_5" x="0" y="0" width="24" height="24" /><rect id="path_6" x="0" y="0" width="24" height="24" /><rect id="path_7" x="0" y="0" width="24" height="24" /><rect id="path_8" x="0" y="0" width="10.625" height="10.625" /></defs></svg>