<svg xmlns="http://www.w3.org/2000/svg" xmlns:xlink="http://www.w3.org/1999/xlink" width="153" height="153" viewBox="0 0 153 153" fill="none"><g opacity="1"  transform="translate(15 15)  rotate(0)"><path id="圆形 1" fill-rule="evenodd" fill="url(#linear_0)" opacity="1" d="M61.5 0C27.53 0 0 27.53 0 61.5C0 95.47 27.53 123 61.5 123C95.47 123 123 95.47 123 61.5C123 27.53 95.47 0 61.5 0Z"></path><path id="圆形 1" fill-rule="evenodd" fill="url(#linear_1)" opacity="1" d="M61.5 0C27.53 0 0 27.53 0 61.5C0 95.47 27.53 123 61.5 123C95.47 123 123 95.47 123 61.5C123 27.53 95.47 0 61.5 0Z"></path><path  id="圆形 1" style="fill:#000000; opacity:1;" d="M61.5,-15c5.20533,0 10.3394,0.5179 15.4022,1.5537c4.94207,1.01107 9.7357,2.49882 14.3809,4.46327c4.55767,1.92746 8.8913,4.27928 13.0009,7.05546c4.06667,2.74722 7.837,5.85796 11.311,9.33221c3.47467,3.47424 6.58567,7.24473 9.333,11.31146c2.776,4.10953 5.12767,8.44317 7.055,13.0009c1.96467,4.6452 3.45233,9.4388 4.463,14.3808c1.036,5.0628 1.554,10.19687 1.554,15.4022c0,5.20533 -0.518,10.3394 -1.554,15.4022c-1.01067,4.94207 -2.49833,9.7357 -4.463,14.3809c-1.92733,4.55767 -4.279,8.8913 -7.055,13.0009c-2.74733,4.06667 -5.85833,7.837 -9.333,11.311c-3.474,3.47467 -7.24433,6.58567 -11.311,9.333c-4.1096,2.776 -8.44323,5.12767 -13.0009,7.055c-4.6452,1.96467 -9.43883,3.45233 -14.3809,4.463c-5.0628,1.036 -10.19687,1.554 -15.4022,1.554c-5.20533,0 -10.3394,-0.518 -15.4022,-1.554c-4.94207,-1.01067 -9.73567,-2.49833 -14.3808,-4.463c-4.55767,-1.92733 -8.8913,-4.279 -13.0009,-7.055c-4.06673,-2.74733 -7.83722,-5.85833 -11.31145,-9.333c-3.47425,-3.474 -6.58499,-7.24433 -9.33222,-11.311c-2.77617,-4.1096 -5.12799,-8.44323 -7.05545,-13.0009c-1.96445,-4.6452 -3.45221,-9.43883 -4.46328,-14.3809c-1.0358,-5.0628 -1.5537,-10.19687 -1.5537,-15.4022c0,-5.20533 0.5179,-10.3394 1.5537,-15.4022c1.01107,-4.94207 2.49882,-9.73567 4.46327,-14.3808c1.92747,-4.55773 4.27929,-8.89137 7.05546,-13.0009c2.74722,-4.06673 5.85796,-7.83722 9.33221,-11.31145c3.47424,-3.47425 7.24473,-6.58499 11.31146,-9.33222c4.10953,-2.77617 8.44317,-5.12798 13.0009,-7.05545c4.64513,-1.96445 9.43873,-3.45221 14.3808,-4.46328c5.0628,-1.0358 10.19687,-1.5537 15.4022,-1.5537zM61.5,0c-33.97,0 -61.5,27.53 -61.5,61.5c0,33.97 27.53,61.5 61.5,61.5c33.97,0 61.5,-27.53 61.5,-61.5c0,-33.97 -27.53,-61.5 -61.5,-61.5z"></path><g opacity="1"  transform="translate(39 39)  rotate(0)"><mask id="bg-mask-0" fill="white"><use xlink:href="#path_0"></use></mask><g mask="url(#bg-mask-0)" ><g opacity="1"  transform="translate(3 3)  rotate(0)"><mask id="bg-mask-1" fill="white"><use xlink:href="#path_1"></use></mask><g mask="url(#bg-mask-1)" ><path  id="路径 1" style="fill:#FFFFFF; opacity:1;" d="M20.739,19.6175c-0.004,0.04073 -0.01,0.0812 -0.018,0.1214c-0.008,0.04013 -0.01793,0.0798 -0.0298,0.119c-0.01193,0.03913 -0.02573,0.07763 -0.0414,0.1155c-0.01567,0.0378 -0.03313,0.07473 -0.0524,0.1108c-0.01927,0.03613 -0.0403,0.07123 -0.0631,0.1053c-0.02273,0.034 -0.04707,0.06683 -0.073,0.0985c-0.026,0.03167 -0.05347,0.06197 -0.0824,0.0909c-0.02893,0.02893 -0.05923,0.0564 -0.0909,0.0824c-0.03167,0.02593 -0.0645,0.05027 -0.0985,0.073c-0.03407,0.0228 -0.06917,0.04383 -0.1053,0.0631c-0.03607,0.01927 -0.073,0.03673 -0.1108,0.0524c-0.03787,0.01567 -0.07637,0.02947 -0.1155,0.0414c-0.0392,0.01187 -0.07887,0.0218 -0.119,0.0298c-0.0402,0.008 -0.08067,0.014 -0.1214,0.018c-0.04073,0.004 -0.08157,0.006 -0.1225,0.006c-0.04093,0 -0.08177,-0.002 -0.1225,-0.006c-0.04073,-0.004 -0.0812,-0.01 -0.1214,-0.018c-0.04013,-0.008 -0.0798,-0.01793 -0.119,-0.0298c-0.03913,-0.01193 -0.07763,-0.02573 -0.1155,-0.0414c-0.0378,-0.01567 -0.07473,-0.03313 -0.1108,-0.0524c-0.03613,-0.01927 -0.07123,-0.0403 -0.1053,-0.0631c-0.034,-0.02273 -0.06683,-0.04707 -0.0985,-0.073c-0.03167,-0.026 -0.06197,-0.05347 -0.0909,-0.0824c-0.02893,-0.02893 -0.0564,-0.05923 -0.0824,-0.0909c-0.02593,-0.03167 -0.05027,-0.0645 -0.073,-0.0985c-0.0228,-0.03407 -0.04383,-0.06917 -0.0631,-0.1053c-0.01933,-0.03607 -0.03683,-0.073 -0.0525,-0.1108c-0.0156,-0.03787 -0.02937,-0.07637 -0.0413,-0.1155c-0.01187,-0.0392 -0.0218,-0.07887 -0.0298,-0.119c-0.008,-0.0402 -0.014,-0.08067 -0.018,-0.1214c-0.004,-0.04073 -0.006,-0.08157 -0.006,-0.1225v-14.62c0,-0.04094 0.002,-0.08178 0.006,-0.12252c0.004,-0.04074 0.01,-0.08119 0.018,-0.12134c0.008,-0.04015 0.01793,-0.07982 0.0298,-0.119c0.01193,-0.03917 0.0257,-0.07767 0.0413,-0.11549c0.01567,-0.03783 0.03317,-0.07479 0.0525,-0.1109c0.01927,-0.0361 0.0403,-0.07117 0.0631,-0.10521c0.02273,-0.03404 0.04707,-0.06688 0.073,-0.09853c0.026,-0.03165 0.05347,-0.06194 0.0824,-0.09089c0.02893,-0.02895 0.05923,-0.05641 0.0909,-0.08238c0.03167,-0.02597 0.0645,-0.05033 0.0985,-0.07308c0.03407,-0.02274 0.06917,-0.04376 0.1053,-0.06306c0.03607,-0.0193 0.073,-0.03678 0.1108,-0.05245c0.03787,-0.01567 0.07637,-0.02944 0.1155,-0.04133c0.0392,-0.01188 0.07887,-0.02181 0.119,-0.0298c0.0402,-0.00799 0.08067,-0.01399 0.1214,-0.018c0.04073,-0.00401 0.08157,-0.00602 0.1225,-0.00602c0.04093,0 0.08177,0.00201 0.1225,0.00602c0.04073,0.00401 0.0812,0.01001 0.1214,0.018c0.04013,0.00799 0.0798,0.01792 0.119,0.0298c0.03913,0.01189 0.07763,0.02566 0.1155,0.04133c0.0378,0.01567 0.07473,0.03315 0.1108,0.05245c0.03613,0.0193 0.07123,0.04032 0.1053,0.06306c0.034,0.02275 0.06683,0.04711 0.0985,0.07308c0.03167,0.02597 0.06197,0.05343 0.0909,0.08238c0.02893,0.02895 0.0564,0.05924 0.0824,0.09089c0.02593,0.03165 0.05027,0.06449 0.073,0.09853c0.0228,0.03404 0.04383,0.06911 0.0631,0.10521c0.01927,0.03611 0.03673,0.07307 0.0524,0.1109c0.01567,0.03782 0.02947,0.07632 0.0414,0.11549c0.01187,0.03918 0.0218,0.07885 0.0298,0.119c0.008,0.04015 0.014,0.0806 0.018,0.12134c0.004,0.04074 0.006,0.08158 0.006,0.12252v14.62c0,0.04093 -0.002,0.08177 -0.006,0.1225zM6.1225,19.4963c0,1.7464 0.32638,3.4252 0.97915,5.0364c0.67557,1.66747 1.65492,3.14387 2.93805,4.4292c1.28227,1.28227 2.75637,2.26113 4.4223,2.9366c1.60987,0.65267 3.28797,0.979 5.0343,0.979c1.7464,0 3.4252,-0.3264 5.0364,-0.9792c1.66747,-0.67553 3.14387,-1.65487 4.4292,-2.938c1.28207,-1.28427 2.26087,-2.76013 2.9364,-4.4276c0.6528,-1.6112 0.9792,-3.29 0.9792,-5.0364c0,-1.74633 -0.32633,-3.42443 -0.979,-5.0343c-0.67547,-1.66593 -1.6546,-3.1403 -2.9374,-4.4231c-0.02893,-0.02896 -0.0564,-0.05926 -0.0824,-0.09091c-0.02593,-0.03165 -0.05027,-0.06449 -0.073,-0.09853c-0.0228,-0.03404 -0.04383,-0.06911 -0.0631,-0.10521c-0.01933,-0.03611 -0.03683,-0.07307 -0.0525,-0.1109c-0.0156,-0.03782 -0.02937,-0.07632 -0.0413,-0.11549c-0.01187,-0.03918 -0.0218,-0.07885 -0.0298,-0.119c-0.008,-0.04015 -0.014,-0.08059 -0.018,-0.12134c-0.004,-0.04074 -0.006,-0.08158 -0.006,-0.12252c0,-0.04094 0.002,-0.08178 0.006,-0.12252c0.004,-0.04075 0.01,-0.08119 0.018,-0.12134c0.008,-0.04015 0.01793,-0.07982 0.0298,-0.119c0.01187,-0.03917 0.02563,-0.07767 0.0413,-0.11549c0.01567,-0.03783 0.03317,-0.07479 0.0525,-0.1109c0.01927,-0.0361 0.0403,-0.07117 0.0631,-0.10521c0.02273,-0.03404 0.04707,-0.06688 0.073,-0.09853c0.026,-0.03165 0.05347,-0.06194 0.0824,-0.09089c0.05807,-0.05804 0.1212,-0.10986 0.1894,-0.15546c0.06827,-0.0456 0.1403,-0.0841 0.2161,-0.11551c0.07587,-0.03141 0.15403,-0.05512 0.2345,-0.07113c0.08053,-0.01601 0.16183,-0.02402 0.2439,-0.02402c0.08207,0 0.16337,0.00801 0.2439,0.02402c0.08047,0.01601 0.15863,0.03972 0.2345,0.07113c0.0758,0.03141 0.14783,0.06992 0.2161,0.11551c0.0682,0.0456 0.13133,0.09742 0.1894,0.15546c1.5218,1.52185 2.68393,3.27238 3.4864,5.25158c0.7748,1.91107 1.1622,3.90227 1.1622,5.9736c0,2.0712 -0.38737,4.0629 -1.1621,5.9751c-0.80227,1.98027 -1.9647,3.73303 -3.4873,5.2583c-1.5242,1.52153 -3.27643,2.68343 -5.2567,3.4857c-1.9122,0.77473 -3.9039,1.1621 -5.9751,1.1621c-2.07133,0 -4.06253,-0.3874 -5.9736,-1.1622c-1.9792,-0.80247 -3.72999,-1.96487 -5.25236,-3.4872c-1.52153,-1.5242 -2.68345,-3.27643 -3.48574,-5.2567c-0.77473,-1.9122 -1.1621,-3.9039 -1.1621,-5.9751c0,-2.07133 0.3874,-4.06253 1.16221,-5.9736c0.80244,-1.9792 1.96458,-3.72973 3.48641,-5.25158c0.02895,-0.02895 0.05924,-0.05641 0.09089,-0.08238c0.03165,-0.02597 0.06449,-0.05033 0.09853,-0.07308c0.03404,-0.02274 0.06911,-0.04376 0.10521,-0.06306c0.03611,-0.0193 0.07307,-0.03678 0.1109,-0.05245c0.03782,-0.01567 0.07632,-0.02944 0.11549,-0.04133c0.03918,-0.01188 0.07885,-0.02181 0.119,-0.0298c0.04015,-0.00799 0.08059,-0.01399 0.12134,-0.018c0.04074,-0.00401 0.08158,-0.00602 0.12252,-0.00602c0.04094,0 0.08178,0.00201 0.12252,0.00602c0.04074,0.00401 0.08119,0.01001 0.12134,0.018c0.04015,0.00799 0.07982,0.01792 0.119,0.0298c0.03917,0.01189 0.07767,0.02566 0.11549,0.04133c0.03783,0.01567 0.07479,0.03315 0.1109,0.05245c0.0361,0.0193 0.07117,0.04032 0.10521,0.06306c0.03404,0.02275 0.06688,0.04711 0.09853,0.07308c0.03165,0.02597 0.06195,0.05343 0.09091,0.08238c0.02893,0.02895 0.0564,0.05924 0.0824,0.09089c0.02593,0.03165 0.05027,0.06449 0.073,0.09853c0.0228,0.03404 0.04383,0.06911 0.0631,0.10521c0.01927,0.03611 0.03673,0.07307 0.0524,0.1109c0.01567,0.03782 0.02947,0.07632 0.0414,0.11549c0.01187,0.03918 0.0218,0.07885 0.0298,0.119c0.008,0.04015 0.014,0.08059 0.018,0.12134c0.004,0.04074 0.006,0.08158 0.006,0.12252c0,0.04094 -0.002,0.08178 -0.006,0.12252c-0.004,0.04074 -0.01,0.08119 -0.018,0.12134c-0.008,0.04015 -0.01793,0.07982 -0.0298,0.119c-0.01193,0.03917 -0.02573,0.07767 -0.0414,0.11549c-0.01567,0.03783 -0.03313,0.07479 -0.0524,0.1109c-0.01927,0.0361 -0.0403,0.07117 -0.0631,0.10521c-0.02273,0.03404 -0.04707,0.06688 -0.073,0.09853c-0.026,0.03165 -0.05347,0.06195 -0.0824,0.09091c-1.28281,1.2828 -2.26193,2.75717 -2.93736,4.4231c-0.65269,1.60987 -0.97904,3.28797 -0.97904,5.0343z"></path></g></g></g></g></g><defs><radialGradient id="linear_0" cx="50%" cy="50%" fx="50%" fy="50%" r="1.086050680677472" gradientTransform="translate(0.5 0.5) scale(1 1) rotate(56.573454006915085) scale(1 1) translate(-0.5 -0.5)" ><stop offset="0" stop-color="#F52043" stop-opacity="1" /><stop offset="1" stop-color="#E67A8C" stop-opacity="1" /></radialGradient><linearGradient id="linear_1" x1="47.32%" y1="72.66%" x2="100%" y2="50%" gradientUnits="objectBoundingBox"><stop offset="0" stop-color="#240707" stop-opacity="0.24" /><stop offset="1" stop-color="#D43030" stop-opacity="0.24" /></linearGradient><rect id="path_0" x="0" y="0" width="45" height="45" /><rect id="path_1" x="0" y="0" width="39" height="39" /></defs></svg>