<svg xmlns="http://www.w3.org/2000/svg" xmlns:xlink="http://www.w3.org/1999/xlink" width="153" height="153" viewBox="0 0 153 153" fill="none"><g opacity="1"  transform="translate(15 15)  rotate(0)"><path id="圆形 1" fill-rule="evenodd" fill="url(#linear_0)" opacity="1" d="M61.5 0C27.53 0 0 27.53 0 61.5C0 95.47 27.53 123 61.5 123C95.47 123 123 95.47 123 61.5C123 27.53 95.47 0 61.5 0Z"></path><path id="圆形 1" fill-rule="evenodd" fill="url(#linear_1)" opacity="1" d="M61.5 0C27.53 0 0 27.53 0 61.5C0 95.47 27.53 123 61.5 123C95.47 123 123 95.47 123 61.5C123 27.53 95.47 0 61.5 0Z"></path><path  id="圆形 1" style="fill:#000000; opacity:1;" d="M61.5,-15c5.20533,0 10.3394,0.5179 15.4022,1.5537c4.94207,1.01107 9.7357,2.49882 14.3809,4.46327c4.55767,1.92746 8.8913,4.27928 13.0009,7.05546c4.06667,2.74722 7.837,5.85796 11.311,9.33221c3.47467,3.47424 6.58567,7.24473 9.333,11.31146c2.776,4.10953 5.12767,8.44317 7.055,13.0009c1.96467,4.6452 3.45233,9.4388 4.463,14.3808c1.036,5.0628 1.554,10.19687 1.554,15.4022c0,5.20533 -0.518,10.3394 -1.554,15.4022c-1.01067,4.94207 -2.49833,9.7357 -4.463,14.3809c-1.92733,4.55767 -4.279,8.8913 -7.055,13.0009c-2.74733,4.06667 -5.85833,7.837 -9.333,11.311c-3.474,3.47467 -7.24433,6.58567 -11.311,9.333c-4.1096,2.776 -8.44323,5.12767 -13.0009,7.055c-4.6452,1.96467 -9.43883,3.45233 -14.3809,4.463c-5.0628,1.036 -10.19687,1.554 -15.4022,1.554c-5.20533,0 -10.3394,-0.518 -15.4022,-1.554c-4.94207,-1.01067 -9.73567,-2.49833 -14.3808,-4.463c-4.55767,-1.92733 -8.8913,-4.279 -13.0009,-7.055c-4.06673,-2.74733 -7.83722,-5.85833 -11.31145,-9.333c-3.47425,-3.474 -6.58499,-7.24433 -9.33222,-11.311c-2.77617,-4.1096 -5.12799,-8.44323 -7.05545,-13.0009c-1.96445,-4.6452 -3.45221,-9.43883 -4.46328,-14.3809c-1.0358,-5.0628 -1.5537,-10.19687 -1.5537,-15.4022c0,-5.20533 0.5179,-10.3394 1.5537,-15.4022c1.01107,-4.94207 2.49882,-9.73567 4.46327,-14.3808c1.92747,-4.55773 4.27929,-8.89137 7.05546,-13.0009c2.74722,-4.06673 5.85796,-7.83722 9.33221,-11.31145c3.47424,-3.47425 7.24473,-6.58499 11.31146,-9.33222c4.10953,-2.77617 8.44317,-5.12798 13.0009,-7.05545c4.64513,-1.96445 9.43873,-3.45221 14.3808,-4.46328c5.0628,-1.0358 10.19687,-1.5537 15.4022,-1.5537zM61.5,0c-33.97,0 -61.5,27.53 -61.5,61.5c0,33.97 27.53,61.5 61.5,61.5c33.97,0 61.5,-27.53 61.5,-61.5c0,-33.97 -27.53,-61.5 -61.5,-61.5z"></path><g opacity="1"  transform="translate(39 39)  rotate(0)"><mask id="bg-mask-0" fill="white"><use xlink:href="#path_0"></use></mask><g mask="url(#bg-mask-0)" ><path  id="路径 1" style="fill:#FFFFFF; opacity:1;" d="M5.55655,10.8613c0.02053,-0.063 0.04592,-0.12397 0.07615,-0.1829c0.03023,-0.05893 0.06492,-0.11513 0.10408,-0.1686c0.03916,-0.0534 0.0823,-0.1034 0.12941,-0.15c0.04711,-0.04653 0.09761,-0.0891 0.15149,-0.1277c0.05388,-0.03853 0.11047,-0.07257 0.16976,-0.1021c0.05929,-0.02953 0.12055,-0.05423 0.18377,-0.0741c0.06322,-0.0198 0.12761,-0.03447 0.19316,-0.044c0.06555,-0.0096 0.13145,-0.01395 0.19769,-0.01304c2.76649,0.03776 5.43701,-0.44659 8.01154,-1.45306c2.57373,-1.00617 4.86417,-2.46087 6.8713,-4.3641c0.02867,-0.02721 0.0586,-0.05301 0.0898,-0.07738c0.03113,-0.02437 0.06337,-0.04722 0.0967,-0.06853c0.03327,-0.02131 0.0675,-0.04099 0.1027,-0.05906c0.0352,-0.01806 0.07117,-0.03441 0.1079,-0.04906c0.03673,-0.01465 0.07407,-0.02753 0.112,-0.03864c0.03793,-0.0111 0.07633,-0.02038 0.1152,-0.02784c0.03887,-0.00746 0.07797,-0.01307 0.1173,-0.01682c0.0394,-0.00375 0.07887,-0.00562 0.1184,-0.00563c0.03953,0 0.079,0.00187 0.1184,0.00561c0.03933,0.00374 0.07843,0.00934 0.1173,0.01679c0.0388,0.00745 0.0772,0.01673 0.1152,0.02783c0.03793,0.0111 0.07527,0.02397 0.112,0.03861c0.03673,0.01464 0.0727,0.03099 0.1079,0.04905c0.0352,0.01805 0.06947,0.03773 0.1028,0.05904c0.03327,0.02131 0.0655,0.04414 0.0967,0.06851c0.03113,0.02437 0.06103,0.05015 0.0897,0.07736c1.9404,1.83925 4.1424,3.25985 6.606,4.2618c2.54967,1.03693 5.21437,1.5554 7.9941,1.5554h0.29c0.06533,0 0.13027,0.00509 0.1948,0.01526c0.06453,0.0102 0.12787,0.02537 0.19,0.0455c0.0622,0.02007 0.12243,0.0449 0.1807,0.0745c0.0582,0.02953 0.1138,0.06343 0.1668,0.1017c0.05293,0.03827 0.10257,0.08043 0.1489,0.1265c0.04633,0.04607 0.0888,0.09543 0.1274,0.1481c0.0386,0.05273 0.07283,0.10813 0.1027,0.1662c0.02993,0.05807 0.05513,0.11813 0.0756,0.1802c0.78873,2.38773 1.1831,4.86173 1.1831,7.422c0,2.72047 -0.4476,5.35217 -1.3428,7.8951c-0.86527,2.45793 -2.10587,4.71533 -3.7218,6.7722c-1.59973,2.03633 -3.47977,3.7653 -5.6401,5.1869c-2.1972,1.44593 -4.56537,2.4948 -7.1045,3.1466c-0.20753,0.05327 -0.41503,0.0532 -0.6225,-0.0002c-2.54147,-0.65433 -4.9112,-1.7045 -7.1092,-3.1505c-2.1618,-1.42213 -4.0428,-3.15087 -5.64301,-5.1862c-1.61663,-2.05627 -2.85765,-4.31293 -3.72307,-6.77c-0.89535,-2.54207 -1.34302,-5.17337 -1.34302,-7.8939c0,-2.5286 0.39385,-5.00107 1.18155,-7.4174zM8.07604,25.3421c0.77389,2.1972 1.88401,4.21563 3.33036,6.0553c1.4326,1.82213 3.1165,3.36973 5.0517,4.6428c1.8762,1.23427 3.89197,2.14607 6.0473,2.7354c2.15233,-0.587 4.16587,-1.49733 6.0406,-2.731c1.9336,-1.27247 3.61647,-2.82017 5.0486,-4.6431c1.4458,-1.84033 2.5556,-3.8596 3.3294,-6.0578c0.80067,-2.27433 1.201,-4.62933 1.201,-7.065c0,-1.9892 -0.26537,-3.91857 -0.7961,-5.7881c-2.87687,-0.07393 -5.64347,-0.6511 -8.2998,-1.7315c-2.3966,-0.97465 -4.57127,-2.30322 -6.524,-3.98571c-2.03147,1.75027 -4.3052,3.1172 -6.8212,4.10081c-2.58387,1.01013 -5.2541,1.54983 -8.01069,1.6191c-0.53214,1.89107 -0.79821,3.81953 -0.79821,5.7854c0,2.4356 0.40035,4.79007 1.20104,7.0634zM27.1076,17.5526c0.04767,-0.0668 0.1014,-0.12833 0.1612,-0.1846c0.0598,-0.0562 0.1245,-0.10603 0.1941,-0.1495c0.0696,-0.04347 0.1428,-0.07973 0.2196,-0.1088c0.07673,-0.02907 0.15557,-0.05037 0.2365,-0.0639c0.081,-0.01353 0.1625,-0.01903 0.2445,-0.0165c0.08207,0.00253 0.16307,0.01307 0.243,0.0316c0.08,0.01847 0.1574,0.04457 0.2322,0.0783c0.0748,0.03373 0.14563,0.07443 0.2125,0.1221c0.03327,0.0238 0.06533,0.04917 0.0962,0.0761c0.0308,0.02693 0.06023,0.0553 0.0883,0.0851c0.02807,0.02987 0.05457,0.061 0.0795,0.0934c0.025,0.0324 0.04833,0.06597 0.07,0.1007c0.02173,0.03473 0.04167,0.07043 0.0598,0.1071c0.0182,0.03673 0.03453,0.07423 0.049,0.1125c0.01453,0.03827 0.02713,0.07717 0.0378,0.1167c0.01067,0.03953 0.01937,0.0795 0.0261,0.1199c0.00673,0.04033 0.0115,0.08093 0.0143,0.1218c0.00273,0.04087 0.00347,0.08177 0.0022,0.1227c-0.00127,0.04087 -0.00453,0.0816 -0.0098,0.1222c-0.00527,0.0406 -0.0125,0.08087 -0.0217,0.1208c-0.0092,0.03987 -0.02037,0.0792 -0.0335,0.118c-0.01307,0.0388 -0.028,0.07687 -0.0448,0.1142c-0.01687,0.03727 -0.0355,0.07367 -0.0559,0.1092c-0.0204,0.03547 -0.0425,0.06987 -0.0663,0.1032l-7.03,9.85c-0.04013,0.05627 -0.08463,0.10883 -0.1335,0.1577c-0.02893,0.029 -0.05923,0.05647 -0.0909,0.0824c-0.03167,0.026 -0.0645,0.05037 -0.0985,0.0731c-0.03407,0.02273 -0.06917,0.04373 -0.1053,0.063c-0.03607,0.01933 -0.073,0.03683 -0.1108,0.0525c-0.03787,0.01567 -0.07637,0.02943 -0.1155,0.0413c-0.0392,0.01187 -0.07887,0.0218 -0.119,0.0298c-0.0402,0.008 -0.08067,0.014 -0.1214,0.018c-0.04073,0.004 -0.08157,0.006 -0.1225,0.006c-0.04093,0 -0.08177,-0.002 -0.1225,-0.006c-0.04073,-0.004 -0.0812,-0.01 -0.1214,-0.018c-0.04013,-0.008 -0.0798,-0.01793 -0.119,-0.0298c-0.03913,-0.01187 -0.07763,-0.02563 -0.1155,-0.0413c-0.0378,-0.01567 -0.07473,-0.03317 -0.1108,-0.0525c-0.03613,-0.01927 -0.07123,-0.04027 -0.1053,-0.063c-0.034,-0.02273 -0.06683,-0.0471 -0.0985,-0.0731c-0.03167,-0.02593 -0.06197,-0.0534 -0.0909,-0.0824l-4.22,-4.22c-0.02893,-0.02893 -0.0564,-0.05923 -0.0824,-0.0909c-0.02593,-0.0316 -0.05027,-0.06443 -0.073,-0.0985c-0.0228,-0.03407 -0.04383,-0.06913 -0.0631,-0.1052c-0.01933,-0.03613 -0.03683,-0.0731 -0.0525,-0.1109c-0.01567,-0.0378 -0.02943,-0.0763 -0.0413,-0.1155c-0.01187,-0.0392 -0.0218,-0.07887 -0.0298,-0.119c-0.008,-0.04013 -0.014,-0.08057 -0.018,-0.1213c-0.004,-0.0408 -0.006,-0.08167 -0.006,-0.1226c0,-0.04093 0.002,-0.08177 0.006,-0.1225c0.004,-0.04073 0.01,-0.08117 0.018,-0.1213c0.008,-0.0402 0.01793,-0.07987 0.0298,-0.119c0.01193,-0.0392 0.0257,-0.0777 0.0413,-0.1155c0.01567,-0.0378 0.03317,-0.07477 0.0525,-0.1109c0.01927,-0.03613 0.0403,-0.0712 0.0631,-0.1052c0.02273,-0.03407 0.04707,-0.0669 0.073,-0.0985c0.026,-0.03167 0.05347,-0.06197 0.0824,-0.0909c0.02893,-0.029 0.05923,-0.05647 0.0909,-0.0824c0.03167,-0.026 0.0645,-0.05037 0.0985,-0.0731c0.03407,-0.02273 0.06917,-0.04377 0.1053,-0.0631c0.03607,-0.01927 0.073,-0.03673 0.1108,-0.0524c0.03787,-0.01567 0.07637,-0.02943 0.1155,-0.0413c0.0392,-0.01193 0.07887,-0.02187 0.119,-0.0298c0.0402,-0.008 0.08067,-0.014 0.1214,-0.018c0.04073,-0.00407 0.08157,-0.0061 0.1225,-0.0061c0.04093,0 0.08177,0.00203 0.1225,0.0061c0.04073,0.004 0.0812,0.01 0.1214,0.018c0.04013,0.00793 0.0798,0.01787 0.119,0.0298c0.03913,0.01187 0.07763,0.02563 0.1155,0.0413c0.0378,0.01567 0.07473,0.03313 0.1108,0.0524c0.03613,0.01933 0.07123,0.04037 0.1053,0.0631c0.034,0.02273 0.06683,0.0471 0.0985,0.0731c0.03167,0.02593 0.06197,0.0534 0.0909,0.0824l3.1762,3.1762z"></path></g></g></g><defs><radialGradient id="linear_0" cx="50%" cy="50%" fx="50%" fy="50%" r="1.086050680677472" gradientTransform="translate(0.5 0.5) scale(1 1) rotate(56.573454006915085) scale(1 1) translate(-0.5 -0.5)" ><stop offset="0" stop-color="#F52043" stop-opacity="1" /><stop offset="1" stop-color="#E67A8C" stop-opacity="1" /></radialGradient><linearGradient id="linear_1" x1="47.32%" y1="72.66%" x2="100%" y2="50%" gradientUnits="objectBoundingBox"><stop offset="0" stop-color="#E61739" stop-opacity="0.24" /><stop offset="1" stop-color="#F85A74" stop-opacity="0.24" /></linearGradient><rect id="path_0" x="0" y="0" width="45" height="45" /></defs></svg>