<svg xmlns="http://www.w3.org/2000/svg" xmlns:xlink="http://www.w3.org/1999/xlink" width="153" height="153" viewBox="0 0 153 153" fill="none"><g opacity="1"  transform="translate(15 15)  rotate(0)"><path id="圆形 1" fill-rule="evenodd" fill="url(#linear_0)" opacity="1" d="M61.5 0C27.53 0 0 27.53 0 61.5C0 95.47 27.53 123 61.5 123C95.47 123 123 95.47 123 61.5C123 27.53 95.47 0 61.5 0Z"></path><path id="圆形 1" fill-rule="evenodd" fill="url(#linear_1)" opacity="1" d="M61.5 0C27.53 0 0 27.53 0 61.5C0 95.47 27.53 123 61.5 123C95.47 123 123 95.47 123 61.5C123 27.53 95.47 0 61.5 0Z"></path><path  id="圆形 1" style="fill:#000000; opacity:1;" d="M61.5,-15c5.20533,0 10.3394,0.5179 15.4022,1.5537c4.94207,1.01107 9.7357,2.49882 14.3809,4.46327c4.55767,1.92746 8.8913,4.27928 13.0009,7.05546c4.06667,2.74722 7.837,5.85796 11.311,9.33221c3.47467,3.47424 6.58567,7.24473 9.333,11.31146c2.776,4.10953 5.12767,8.44317 7.055,13.0009c1.96467,4.6452 3.45233,9.4388 4.463,14.3808c1.036,5.0628 1.554,10.19687 1.554,15.4022c0,5.20533 -0.518,10.3394 -1.554,15.4022c-1.01067,4.94207 -2.49833,9.7357 -4.463,14.3809c-1.92733,4.55767 -4.279,8.8913 -7.055,13.0009c-2.74733,4.06667 -5.85833,7.837 -9.333,11.311c-3.474,3.47467 -7.24433,6.58567 -11.311,9.333c-4.1096,2.776 -8.44323,5.12767 -13.0009,7.055c-4.6452,1.96467 -9.43883,3.45233 -14.3809,4.463c-5.0628,1.036 -10.19687,1.554 -15.4022,1.554c-5.20533,0 -10.3394,-0.518 -15.4022,-1.554c-4.94207,-1.01067 -9.73567,-2.49833 -14.3808,-4.463c-4.55767,-1.92733 -8.8913,-4.279 -13.0009,-7.055c-4.06673,-2.74733 -7.83722,-5.85833 -11.31145,-9.333c-3.47425,-3.474 -6.58499,-7.24433 -9.33222,-11.311c-2.77617,-4.1096 -5.12799,-8.44323 -7.05545,-13.0009c-1.96445,-4.6452 -3.45221,-9.43883 -4.46328,-14.3809c-1.0358,-5.0628 -1.5537,-10.19687 -1.5537,-15.4022c0,-5.20533 0.5179,-10.3394 1.5537,-15.4022c1.01107,-4.94207 2.49882,-9.73567 4.46327,-14.3808c1.92747,-4.55773 4.27929,-8.89137 7.05546,-13.0009c2.74722,-4.06673 5.85796,-7.83722 9.33221,-11.31145c3.47424,-3.47425 7.24473,-6.58499 11.31146,-9.33222c4.10953,-2.77617 8.44317,-5.12798 13.0009,-7.05545c4.64513,-1.96445 9.43873,-3.45221 14.3808,-4.46328c5.0628,-1.0358 10.19687,-1.5537 15.4022,-1.5537zM61.5,0c-33.97,0 -61.5,27.53 -61.5,61.5c0,33.97 27.53,61.5 61.5,61.5c33.97,0 61.5,-27.53 61.5,-61.5c0,-33.97 -27.53,-61.5 -61.5,-61.5z"></path><g opacity="1"  transform="translate(39 39)  rotate(0)"><mask id="bg-mask-0" fill="white"><use xlink:href="#path_0"></use></mask><g mask="url(#bg-mask-0)" ><path  id="路径 1" style="fill:#FFFFFF; opacity:1;" d="M26.0375,30.244c-0.04073,-0.004 -0.0812,-0.01 -0.1214,-0.018c-0.04013,-0.008 -0.0798,-0.01793 -0.119,-0.0298c-0.03913,-0.01193 -0.07763,-0.02573 -0.1155,-0.0414c-0.0378,-0.01567 -0.07473,-0.03313 -0.1108,-0.0524c-0.03613,-0.01927 -0.07123,-0.0403 -0.1053,-0.0631c-0.034,-0.02273 -0.06683,-0.04707 -0.0985,-0.073c-0.03167,-0.026 -0.06197,-0.05347 -0.0909,-0.0824c-0.02893,-0.02893 -0.0564,-0.05923 -0.0824,-0.0909c-0.02593,-0.03167 -0.05027,-0.0645 -0.073,-0.0985c-0.0228,-0.03407 -0.04383,-0.06917 -0.0631,-0.1053c-0.01933,-0.03607 -0.03683,-0.07303 -0.0525,-0.1109c-0.01567,-0.0378 -0.02943,-0.07627 -0.0413,-0.1154c-0.01187,-0.0392 -0.0218,-0.07887 -0.0298,-0.119c-0.008,-0.0402 -0.014,-0.08067 -0.018,-0.1214c-0.004,-0.04073 -0.006,-0.08157 -0.006,-0.1225v-13c0,-0.04093 0.002,-0.08177 0.006,-0.1225c0.004,-0.04073 0.01,-0.0812 0.018,-0.1214c0.008,-0.04013 0.01793,-0.0798 0.0298,-0.119c0.01187,-0.03913 0.02563,-0.07763 0.0413,-0.1155c0.01567,-0.0378 0.03317,-0.07473 0.0525,-0.1108c0.01927,-0.03613 0.0403,-0.07123 0.0631,-0.1053c0.02273,-0.034 0.04707,-0.06683 0.073,-0.0985c0.026,-0.03167 0.05347,-0.06197 0.0824,-0.0909c0.02893,-0.02893 0.05923,-0.0564 0.0909,-0.0824c0.03167,-0.02593 0.0645,-0.05027 0.0985,-0.073c0.03407,-0.0228 0.06917,-0.04383 0.1053,-0.0631c0.03607,-0.01933 0.073,-0.03683 0.1108,-0.0525c0.03787,-0.0156 0.07637,-0.02937 0.1155,-0.0413c0.0392,-0.01187 0.07887,-0.0218 0.119,-0.0298c0.0402,-0.008 0.08067,-0.014 0.1214,-0.018c0.04073,-0.004 0.08157,-0.006 0.1225,-0.006c0.04093,0 0.08177,0.002 0.1225,0.006c0.04073,0.004 0.0812,0.01 0.1214,0.018c0.04013,0.008 0.0798,0.01793 0.119,0.0298c0.03913,0.01193 0.0776,0.0257 0.1154,0.0413c0.03787,0.01567 0.07483,0.03317 0.1109,0.0525c0.03613,0.01927 0.07123,0.0403 0.1053,0.0631c0.034,0.02273 0.06683,0.04707 0.0985,0.073c0.03167,0.026 0.06197,0.05347 0.0909,0.0824c0.02893,0.02893 0.0564,0.05923 0.0824,0.0909c0.02593,0.03167 0.05027,0.0645 0.073,0.0985c0.0228,0.03407 0.04383,0.06917 0.0631,0.1053c0.01927,0.03607 0.03673,0.073 0.0524,0.1108c0.01567,0.03787 0.02947,0.07637 0.0414,0.1155c0.01187,0.0392 0.0218,0.07887 0.0298,0.119c0.008,0.0402 0.014,0.08067 0.018,0.1214c0.004,0.04073 0.006,0.08157 0.006,0.1225v13c0,0.04093 -0.002,0.08177 -0.006,0.1225c-0.004,0.04073 -0.01,0.0812 -0.018,0.1214c-0.008,0.04013 -0.01793,0.0798 -0.0298,0.119c-0.01193,0.03913 -0.02573,0.07763 -0.0414,0.1155c-0.01567,0.0378 -0.03313,0.07473 -0.0524,0.1108c-0.01927,0.03613 -0.0403,0.07123 -0.0631,0.1053c-0.02273,0.034 -0.04707,0.06683 -0.073,0.0985c-0.026,0.03167 -0.05347,0.06197 -0.0824,0.0909c-0.02893,0.02893 -0.05923,0.0564 -0.0909,0.0824c-0.03167,0.02593 -0.0645,0.05027 -0.0985,0.073c-0.03407,0.0228 -0.06917,0.04383 -0.1053,0.0631c-0.03607,0.01927 -0.07303,0.03673 -0.1109,0.0524c-0.0378,0.01567 -0.07627,0.02947 -0.1154,0.0414c-0.0392,0.01187 -0.07887,0.0218 -0.119,0.0298c-0.0402,0.008 -0.08067,0.014 -0.1214,0.018c-0.04073,0.004 -0.08157,0.006 -0.1225,0.006c-0.04093,0 -0.08177,-0.002 -0.1225,-0.006zM33.6175,30.244c-0.04073,-0.004 -0.0812,-0.01 -0.1214,-0.018c-0.04013,-0.008 -0.0798,-0.01793 -0.119,-0.0298c-0.03913,-0.01193 -0.07763,-0.02573 -0.1155,-0.0414c-0.0378,-0.01567 -0.07477,-0.03313 -0.1109,-0.0524c-0.03607,-0.01927 -0.07113,-0.0403 -0.1052,-0.0631c-0.034,-0.02273 -0.06683,-0.04707 -0.0985,-0.073c-0.03167,-0.026 -0.06197,-0.05347 -0.0909,-0.0824c-0.02893,-0.02893 -0.0564,-0.05923 -0.0824,-0.0909c-0.02593,-0.03167 -0.05027,-0.0645 -0.073,-0.0985c-0.0228,-0.03407 -0.04383,-0.06917 -0.0631,-0.1053c-0.01933,-0.03607 -0.03683,-0.07303 -0.0525,-0.1109c-0.01567,-0.0378 -0.02943,-0.07627 -0.0413,-0.1154c-0.01187,-0.0392 -0.0218,-0.07887 -0.0298,-0.119c-0.008,-0.0402 -0.014,-0.08067 -0.018,-0.1214c-0.004,-0.04073 -0.006,-0.08157 -0.006,-0.1225v-13c0,-0.04093 0.002,-0.08177 0.006,-0.1225c0.004,-0.04073 0.01,-0.0812 0.018,-0.1214c0.008,-0.04013 0.01793,-0.0798 0.0298,-0.119c0.01187,-0.03913 0.02563,-0.07763 0.0413,-0.1155c0.01567,-0.0378 0.03317,-0.07473 0.0525,-0.1108c0.01927,-0.03613 0.0403,-0.07123 0.0631,-0.1053c0.02273,-0.034 0.04707,-0.06683 0.073,-0.0985c0.026,-0.03167 0.05347,-0.06197 0.0824,-0.0909c0.02893,-0.02893 0.05923,-0.0564 0.0909,-0.0824c0.03167,-0.02593 0.0645,-0.05027 0.0985,-0.073c0.03407,-0.0228 0.06913,-0.04383 0.1052,-0.0631c0.03613,-0.01933 0.0731,-0.03683 0.1109,-0.0525c0.03787,-0.0156 0.07637,-0.02937 0.1155,-0.0413c0.0392,-0.01187 0.07887,-0.0218 0.119,-0.0298c0.0402,-0.008 0.08067,-0.014 0.1214,-0.018c0.04073,-0.004 0.08157,-0.006 0.1225,-0.006c0.04093,0 0.08177,0.002 0.1225,0.006c0.04073,0.004 0.0812,0.01 0.1214,0.018c0.04013,0.008 0.0798,0.01793 0.119,0.0298c0.03913,0.01193 0.0776,0.0257 0.1154,0.0413c0.03787,0.01567 0.07483,0.03317 0.1109,0.0525c0.03613,0.01927 0.07123,0.0403 0.1053,0.0631c0.034,0.02273 0.06683,0.04707 0.0985,0.073c0.03167,0.026 0.06197,0.05347 0.0909,0.0824c0.02893,0.02893 0.0564,0.05923 0.0824,0.0909c0.02593,0.03167 0.05027,0.0645 0.073,0.0985c0.02273,0.03407 0.04377,0.06917 0.0631,0.1053c0.01927,0.03607 0.03673,0.073 0.0524,0.1108c0.01567,0.03787 0.02947,0.07637 0.0414,0.1155c0.01187,0.0392 0.0218,0.07887 0.0298,0.119c0.008,0.0402 0.014,0.08067 0.018,0.1214c0.004,0.04073 0.006,0.08157 0.006,0.1225v13c0,0.04093 -0.002,0.08177 -0.006,0.1225c-0.004,0.04073 -0.01,0.0812 -0.018,0.1214c-0.008,0.04013 -0.01793,0.0798 -0.0298,0.119c-0.01193,0.03913 -0.02573,0.07763 -0.0414,0.1155c-0.01567,0.0378 -0.03313,0.07473 -0.0524,0.1108c-0.01933,0.03613 -0.04037,0.07123 -0.0631,0.1053c-0.02273,0.034 -0.04707,0.06683 -0.073,0.0985c-0.026,0.03167 -0.05347,0.06197 -0.0824,0.0909c-0.02893,0.02893 -0.05923,0.0564 -0.0909,0.0824c-0.03167,0.02593 -0.0645,0.05027 -0.0985,0.073c-0.03407,0.0228 -0.06917,0.04383 -0.1053,0.0631c-0.03607,0.01927 -0.07303,0.03673 -0.1109,0.0524c-0.0378,0.01567 -0.07627,0.02947 -0.1154,0.0414c-0.0392,0.01187 -0.07887,0.0218 -0.119,0.0298c-0.0402,0.008 -0.08067,0.014 -0.1214,0.018c-0.04073,0.004 -0.08157,0.006 -0.1225,0.006c-0.04093,0 -0.08177,-0.002 -0.1225,-0.006zM11.0925,29.8168c-0.41267,-0.23447 -0.73897,-0.5549 -0.9789,-0.9613c-0.2424,-0.4106 -0.3636,-0.85243 -0.3636,-1.3255v-10.06c0,-0.49447 0.1277,-0.9503 0.3831,-1.3675c0.23767,-0.3884 0.5571,-0.69653 0.9583,-0.9244c0.39773,-0.22593 0.8242,-0.34353 1.2794,-0.3528c0.48433,-0.00993 0.9412,0.10487 1.3706,0.3444l8.9657,5.0276c0.42147,0.23413 0.75377,0.5563 0.9969,0.9665c0.244,0.4116 0.366,0.857 0.366,1.3362c0,0.4792 -0.122,0.9246 -0.366,1.3362c-0.24313,0.4102 -0.574,0.73157 -0.9926,0.9641l-8.9639,5.0265c-0.41413,0.23533 -0.8609,0.35053 -1.3403,0.3456c-0.4676,-0.00473 -0.90583,-0.12327 -1.3147,-0.3556zM12.3275,27.6432c0.06753,0.03833 0.1292,0.04167 0.185,0.01l8.9761,-5.0335c0.05427,-0.03013 0.0814,-0.07003 0.0814,-0.1197c0,-0.04967 -0.0257,-0.08877 -0.0771,-0.1173l-8.9743,-5.0324c-0.0638,-0.0356 -0.12797,-0.03507 -0.1925,0.0016c-0.05073,0.0288 -0.0761,0.06817 -0.0761,0.1181v10.06c0,0.04607 0.02583,0.0838 0.0775,0.1132z"></path></g></g></g><defs><radialGradient id="linear_0" cx="50%" cy="50%" fx="50%" fy="50%" r="1.086050680677472" gradientTransform="translate(0.5 0.5) scale(1 1) rotate(56.573454006915085) scale(1 1) translate(-0.5 -0.5)" ><stop offset="0" stop-color="#F52043" stop-opacity="1" /><stop offset="1" stop-color="#E67A8C" stop-opacity="1" /></radialGradient><linearGradient id="linear_1" x1="47.32%" y1="72.66%" x2="100%" y2="50%" gradientUnits="objectBoundingBox"><stop offset="0" stop-color="#FFC300" stop-opacity="0.24" /><stop offset="1" stop-color="#F85A74" stop-opacity="0.24" /></linearGradient><rect id="path_0" x="0" y="0" width="45" height="45" /></defs></svg>